<svg version="1.1" xmlns="http://www.w3.org/2000/svg" xmlns:xlink="http://www.w3.org/1999/xlink" x="0px" y="0px" viewBox="0 0 122 251" style="enable-background:new 0 0 122.8 251.6;" xml:space="preserve" id="el_n5s2FvGK2"><style>@-webkit-keyframes kf_el_8rGQ4J-nGbB_an_MxFmmFgft{0%{-webkit-transform: translate(56.150001525878906px, 69.59960556030273px) scale(1, 1) translate(-56.150001525878906px, -69.59960556030273px);transform: translate(56.150001525878906px, 69.59960556030273px) scale(1, 1) translate(-56.150001525878906px, -69.59960556030273px);}15%{-webkit-transform: translate(56.150001525878906px, 69.59960556030273px) scale(1.03, 1.03) translate(-56.150001525878906px, -69.59960556030273px);transform: translate(56.150001525878906px, 69.59960556030273px) scale(1.03, 1.03) translate(-56.150001525878906px, -69.59960556030273px);}48.33%{-webkit-transform: translate(56.150001525878906px, 69.59960556030273px) scale(1.03, 1.03) translate(-56.150001525878906px, -69.59960556030273px);transform: translate(56.150001525878906px, 69.59960556030273px) scale(1.03, 1.03) translate(-56.150001525878906px, -69.59960556030273px);}55.00%{-webkit-transform: translate(56.150001525878906px, 69.59960556030273px) scale(1, 1) translate(-56.150001525878906px, -69.59960556030273px);transform: translate(56.150001525878906px, 69.59960556030273px) scale(1, 1) translate(-56.150001525878906px, -69.59960556030273px);}100%{-webkit-transform: translate(56.150001525878906px, 69.59960556030273px) scale(1, 1) translate(-56.150001525878906px, -69.59960556030273px);transform: translate(56.150001525878906px, 69.59960556030273px) scale(1, 1) translate(-56.150001525878906px, -69.59960556030273px);}}@keyframes kf_el_8rGQ4J-nGbB_an_MxFmmFgft{0%{-webkit-transform: translate(56.150001525878906px, 69.59960556030273px) scale(1, 1) translate(-56.150001525878906px, -69.59960556030273px);transform: translate(56.150001525878906px, 69.59960556030273px) scale(1, 1) translate(-56.150001525878906px, -69.59960556030273px);}15%{-webkit-transform: translate(56.150001525878906px, 69.59960556030273px) scale(1.03, 1.03) translate(-56.150001525878906px, -69.59960556030273px);transform: translate(56.150001525878906px, 69.59960556030273px) scale(1.03, 1.03) translate(-56.150001525878906px, -69.59960556030273px);}48.33%{-webkit-transform: translate(56.150001525878906px, 69.59960556030273px) scale(1.03, 1.03) translate(-56.150001525878906px, -69.59960556030273px);transform: translate(56.150001525878906px, 69.59960556030273px) scale(1.03, 1.03) translate(-56.150001525878906px, -69.59960556030273px);}55.00%{-webkit-transform: translate(56.150001525878906px, 69.59960556030273px) scale(1, 1) translate(-56.150001525878906px, -69.59960556030273px);transform: translate(56.150001525878906px, 69.59960556030273px) scale(1, 1) translate(-56.150001525878906px, -69.59960556030273px);}100%{-webkit-transform: translate(56.150001525878906px, 69.59960556030273px) scale(1, 1) translate(-56.150001525878906px, -69.59960556030273px);transform: translate(56.150001525878906px, 69.59960556030273px) scale(1, 1) translate(-56.150001525878906px, -69.59960556030273px);}}@-webkit-keyframes kf_el_8rGQ4J-nGbB_an_-DcmO_9f1{0%{-webkit-transform: translate(56.150001525878906px, 69.59960556030273px) translate(-56.150001525878906px, -69.59960556030273px) translate(0px, 0px);transform: translate(56.150001525878906px, 69.59960556030273px) translate(-56.150001525878906px, -69.59960556030273px) translate(0px, 0px);}10%{-webkit-transform: translate(56.150001525878906px, 69.59960556030273px) translate(-56.150001525878906px, -69.59960556030273px) translate(0px, -6px);transform: translate(56.150001525878906px, 69.59960556030273px) translate(-56.150001525878906px, -69.59960556030273px) translate(0px, -6px);}41.67%{-webkit-transform: translate(56.150001525878906px, 69.59960556030273px) translate(-56.150001525878906px, -69.59960556030273px) translate(0px, -7px);transform: translate(56.150001525878906px, 69.59960556030273px) translate(-56.150001525878906px, -69.59960556030273px) translate(0px, -7px);}78.33%{-webkit-transform: translate(56.150001525878906px, 69.59960556030273px) translate(-56.150001525878906px, -69.59960556030273px) translate(0px, 0px);transform: translate(56.150001525878906px, 69.59960556030273px) translate(-56.150001525878906px, -69.59960556030273px) translate(0px, 0px);}100%{-webkit-transform: translate(56.150001525878906px, 69.59960556030273px) translate(-56.150001525878906px, -69.59960556030273px) translate(0px, 0px);transform: translate(56.150001525878906px, 69.59960556030273px) translate(-56.150001525878906px, -69.59960556030273px) translate(0px, 0px);}}@keyframes kf_el_8rGQ4J-nGbB_an_-DcmO_9f1{0%{-webkit-transform: translate(56.150001525878906px, 69.59960556030273px) translate(-56.150001525878906px, -69.59960556030273px) translate(0px, 0px);transform: translate(56.150001525878906px, 69.59960556030273px) translate(-56.150001525878906px, -69.59960556030273px) translate(0px, 0px);}10%{-webkit-transform: translate(56.150001525878906px, 69.59960556030273px) translate(-56.150001525878906px, -69.59960556030273px) translate(0px, -6px);transform: translate(56.150001525878906px, 69.59960556030273px) translate(-56.150001525878906px, -69.59960556030273px) translate(0px, -6px);}41.67%{-webkit-transform: translate(56.150001525878906px, 69.59960556030273px) translate(-56.150001525878906px, -69.59960556030273px) translate(0px, -7px);transform: translate(56.150001525878906px, 69.59960556030273px) translate(-56.150001525878906px, -69.59960556030273px) translate(0px, -7px);}78.33%{-webkit-transform: translate(56.150001525878906px, 69.59960556030273px) translate(-56.150001525878906px, -69.59960556030273px) translate(0px, 0px);transform: translate(56.150001525878906px, 69.59960556030273px) translate(-56.150001525878906px, -69.59960556030273px) translate(0px, 0px);}100%{-webkit-transform: translate(56.150001525878906px, 69.59960556030273px) translate(-56.150001525878906px, -69.59960556030273px) translate(0px, 0px);transform: translate(56.150001525878906px, 69.59960556030273px) translate(-56.150001525878906px, -69.59960556030273px) translate(0px, 0px);}}@-webkit-keyframes kf_el_6I-5kjQKsbt_an_6sRL-EMtZ{0%{-webkit-transform: translate(61.400390625px, 73.04960632324219px) scale(1, 1) translate(-61.400390625px, -73.04960632324219px);transform: translate(61.400390625px, 73.04960632324219px) scale(1, 1) translate(-61.400390625px, -73.04960632324219px);}15%{-webkit-transform: translate(61.400390625px, 73.04960632324219px) scale(1.03, 1.03) translate(-61.400390625px, -73.04960632324219px);transform: translate(61.400390625px, 73.04960632324219px) scale(1.03, 1.03) translate(-61.400390625px, -73.04960632324219px);}48.33%{-webkit-transform: translate(61.400390625px, 73.04960632324219px) scale(1.03, 1.03) translate(-61.400390625px, -73.04960632324219px);transform: translate(61.400390625px, 73.04960632324219px) scale(1.03, 1.03) translate(-61.400390625px, -73.04960632324219px);}55.00%{-webkit-transform: translate(61.400390625px, 73.04960632324219px) scale(1, 1) translate(-61.400390625px, -73.04960632324219px);transform: translate(61.400390625px, 73.04960632324219px) scale(1, 1) translate(-61.400390625px, -73.04960632324219px);}100%{-webkit-transform: translate(61.400390625px, 73.04960632324219px) scale(1, 1) translate(-61.400390625px, -73.04960632324219px);transform: translate(61.400390625px, 73.04960632324219px) scale(1, 1) translate(-61.400390625px, -73.04960632324219px);}}@keyframes kf_el_6I-5kjQKsbt_an_6sRL-EMtZ{0%{-webkit-transform: translate(61.400390625px, 73.04960632324219px) scale(1, 1) translate(-61.400390625px, -73.04960632324219px);transform: translate(61.400390625px, 73.04960632324219px) scale(1, 1) translate(-61.400390625px, -73.04960632324219px);}15%{-webkit-transform: translate(61.400390625px, 73.04960632324219px) scale(1.03, 1.03) translate(-61.400390625px, -73.04960632324219px);transform: translate(61.400390625px, 73.04960632324219px) scale(1.03, 1.03) translate(-61.400390625px, -73.04960632324219px);}48.33%{-webkit-transform: translate(61.400390625px, 73.04960632324219px) scale(1.03, 1.03) translate(-61.400390625px, -73.04960632324219px);transform: translate(61.400390625px, 73.04960632324219px) scale(1.03, 1.03) translate(-61.400390625px, -73.04960632324219px);}55.00%{-webkit-transform: translate(61.400390625px, 73.04960632324219px) scale(1, 1) translate(-61.400390625px, -73.04960632324219px);transform: translate(61.400390625px, 73.04960632324219px) scale(1, 1) translate(-61.400390625px, -73.04960632324219px);}100%{-webkit-transform: translate(61.400390625px, 73.04960632324219px) scale(1, 1) translate(-61.400390625px, -73.04960632324219px);transform: translate(61.400390625px, 73.04960632324219px) scale(1, 1) translate(-61.400390625px, -73.04960632324219px);}}@-webkit-keyframes kf_el_6I-5kjQKsbt_an_55L625zgn{0%{-webkit-transform: translate(61.400390625px, 73.04960632324219px) translate(-61.400390625px, -73.04960632324219px) translate(0px, 0px);transform: translate(61.400390625px, 73.04960632324219px) translate(-61.400390625px, -73.04960632324219px) translate(0px, 0px);}10%{-webkit-transform: translate(61.400390625px, 73.04960632324219px) translate(-61.400390625px, -73.04960632324219px) translate(0px, -5px);transform: translate(61.400390625px, 73.04960632324219px) translate(-61.400390625px, -73.04960632324219px) translate(0px, -5px);}41.67%{-webkit-transform: translate(61.400390625px, 73.04960632324219px) translate(-61.400390625px, -73.04960632324219px) translate(0px, -6px);transform: translate(61.400390625px, 73.04960632324219px) translate(-61.400390625px, -73.04960632324219px) translate(0px, -6px);}78.33%{-webkit-transform: translate(61.400390625px, 73.04960632324219px) translate(-61.400390625px, -73.04960632324219px) translate(0px, 0px);transform: translate(61.400390625px, 73.04960632324219px) translate(-61.400390625px, -73.04960632324219px) translate(0px, 0px);}100%{-webkit-transform: translate(61.400390625px, 73.04960632324219px) translate(-61.400390625px, -73.04960632324219px) translate(0px, 0px);transform: translate(61.400390625px, 73.04960632324219px) translate(-61.400390625px, -73.04960632324219px) translate(0px, 0px);}}@keyframes kf_el_6I-5kjQKsbt_an_55L625zgn{0%{-webkit-transform: translate(61.400390625px, 73.04960632324219px) translate(-61.400390625px, -73.04960632324219px) translate(0px, 0px);transform: translate(61.400390625px, 73.04960632324219px) translate(-61.400390625px, -73.04960632324219px) translate(0px, 0px);}10%{-webkit-transform: translate(61.400390625px, 73.04960632324219px) translate(-61.400390625px, -73.04960632324219px) translate(0px, -5px);transform: translate(61.400390625px, 73.04960632324219px) translate(-61.400390625px, -73.04960632324219px) translate(0px, -5px);}41.67%{-webkit-transform: translate(61.400390625px, 73.04960632324219px) translate(-61.400390625px, -73.04960632324219px) translate(0px, -6px);transform: translate(61.400390625px, 73.04960632324219px) translate(-61.400390625px, -73.04960632324219px) translate(0px, -6px);}78.33%{-webkit-transform: translate(61.400390625px, 73.04960632324219px) translate(-61.400390625px, -73.04960632324219px) translate(0px, 0px);transform: translate(61.400390625px, 73.04960632324219px) translate(-61.400390625px, -73.04960632324219px) translate(0px, 0px);}100%{-webkit-transform: translate(61.400390625px, 73.04960632324219px) translate(-61.400390625px, -73.04960632324219px) translate(0px, 0px);transform: translate(61.400390625px, 73.04960632324219px) translate(-61.400390625px, -73.04960632324219px) translate(0px, 0px);}}@-webkit-keyframes kf_el_VMNpO9M5ah_an_7nL_X9nKF{0%{-webkit-transform: translate(61.5px, 179.94921875px) scale(1, 1) translate(-61.5px, -179.94921875px);transform: translate(61.5px, 179.94921875px) scale(1, 1) translate(-61.5px, -179.94921875px);}18.33%{-webkit-transform: translate(61.5px, 179.94921875px) scale(1, 1.04) translate(-61.5px, -179.94921875px);transform: translate(61.5px, 179.94921875px) scale(1, 1.04) translate(-61.5px, -179.94921875px);}66.67%{-webkit-transform: translate(61.5px, 179.94921875px) scale(1, 1) translate(-61.5px, -179.94921875px);transform: translate(61.5px, 179.94921875px) scale(1, 1) translate(-61.5px, -179.94921875px);}100%{-webkit-transform: translate(61.5px, 179.94921875px) scale(1, 1) translate(-61.5px, -179.94921875px);transform: translate(61.5px, 179.94921875px) scale(1, 1) translate(-61.5px, -179.94921875px);}}@keyframes kf_el_VMNpO9M5ah_an_7nL_X9nKF{0%{-webkit-transform: translate(61.5px, 179.94921875px) scale(1, 1) translate(-61.5px, -179.94921875px);transform: translate(61.5px, 179.94921875px) scale(1, 1) translate(-61.5px, -179.94921875px);}18.33%{-webkit-transform: translate(61.5px, 179.94921875px) scale(1, 1.04) translate(-61.5px, -179.94921875px);transform: translate(61.5px, 179.94921875px) scale(1, 1.04) translate(-61.5px, -179.94921875px);}66.67%{-webkit-transform: translate(61.5px, 179.94921875px) scale(1, 1) translate(-61.5px, -179.94921875px);transform: translate(61.5px, 179.94921875px) scale(1, 1) translate(-61.5px, -179.94921875px);}100%{-webkit-transform: translate(61.5px, 179.94921875px) scale(1, 1) translate(-61.5px, -179.94921875px);transform: translate(61.5px, 179.94921875px) scale(1, 1) translate(-61.5px, -179.94921875px);}}@-webkit-keyframes kf_el_VMNpO9M5ah_an_4vqN4SYM8{0%{-webkit-transform: translate(61.5px, 179.94921875px) translate(-61.5px, -179.94921875px) translate(0px, 0px);transform: translate(61.5px, 179.94921875px) translate(-61.5px, -179.94921875px) translate(0px, 0px);}25%{-webkit-transform: translate(61.5px, 179.94921875px) translate(-61.5px, -179.94921875px) translate(0px, -3px);transform: translate(61.5px, 179.94921875px) translate(-61.5px, -179.94921875px) translate(0px, -3px);}56.67%{-webkit-transform: translate(61.5px, 179.94921875px) translate(-61.5px, -179.94921875px) translate(0px, -4px);transform: translate(61.5px, 179.94921875px) translate(-61.5px, -179.94921875px) translate(0px, -4px);}83.33%{-webkit-transform: translate(61.5px, 179.94921875px) translate(-61.5px, -179.94921875px) translate(0px, 0px);transform: translate(61.5px, 179.94921875px) translate(-61.5px, -179.94921875px) translate(0px, 0px);}100%{-webkit-transform: translate(61.5px, 179.94921875px) translate(-61.5px, -179.94921875px) translate(0px, 0px);transform: translate(61.5px, 179.94921875px) translate(-61.5px, -179.94921875px) translate(0px, 0px);}}@keyframes kf_el_VMNpO9M5ah_an_4vqN4SYM8{0%{-webkit-transform: translate(61.5px, 179.94921875px) translate(-61.5px, -179.94921875px) translate(0px, 0px);transform: translate(61.5px, 179.94921875px) translate(-61.5px, -179.94921875px) translate(0px, 0px);}25%{-webkit-transform: translate(61.5px, 179.94921875px) translate(-61.5px, -179.94921875px) translate(0px, -3px);transform: translate(61.5px, 179.94921875px) translate(-61.5px, -179.94921875px) translate(0px, -3px);}56.67%{-webkit-transform: translate(61.5px, 179.94921875px) translate(-61.5px, -179.94921875px) translate(0px, -4px);transform: translate(61.5px, 179.94921875px) translate(-61.5px, -179.94921875px) translate(0px, -4px);}83.33%{-webkit-transform: translate(61.5px, 179.94921875px) translate(-61.5px, -179.94921875px) translate(0px, 0px);transform: translate(61.5px, 179.94921875px) translate(-61.5px, -179.94921875px) translate(0px, 0px);}100%{-webkit-transform: translate(61.5px, 179.94921875px) translate(-61.5px, -179.94921875px) translate(0px, 0px);transform: translate(61.5px, 179.94921875px) translate(-61.5px, -179.94921875px) translate(0px, 0px);}}@-webkit-keyframes kf_el_i9vLsMvJbm_an_VpexO3kqO{0%{-webkit-transform: translate(61.69921875px, 197.814453125px) scale(1, 1) translate(-61.69921875px, -197.814453125px);transform: translate(61.69921875px, 197.814453125px) scale(1, 1) translate(-61.69921875px, -197.814453125px);}18.33%{-webkit-transform: translate(61.69921875px, 197.814453125px) scale(0.97, 0.97) translate(-61.69921875px, -197.814453125px);transform: translate(61.69921875px, 197.814453125px) scale(0.97, 0.97) translate(-61.69921875px, -197.814453125px);}66.67%{-webkit-transform: translate(61.69921875px, 197.814453125px) scale(1, 1) translate(-61.69921875px, -197.814453125px);transform: translate(61.69921875px, 197.814453125px) scale(1, 1) translate(-61.69921875px, -197.814453125px);}100%{-webkit-transform: translate(61.69921875px, 197.814453125px) scale(1, 1) translate(-61.69921875px, -197.814453125px);transform: translate(61.69921875px, 197.814453125px) scale(1, 1) translate(-61.69921875px, -197.814453125px);}}@keyframes kf_el_i9vLsMvJbm_an_VpexO3kqO{0%{-webkit-transform: translate(61.69921875px, 197.814453125px) scale(1, 1) translate(-61.69921875px, -197.814453125px);transform: translate(61.69921875px, 197.814453125px) scale(1, 1) translate(-61.69921875px, -197.814453125px);}18.33%{-webkit-transform: translate(61.69921875px, 197.814453125px) scale(0.97, 0.97) translate(-61.69921875px, -197.814453125px);transform: translate(61.69921875px, 197.814453125px) scale(0.97, 0.97) translate(-61.69921875px, -197.814453125px);}66.67%{-webkit-transform: translate(61.69921875px, 197.814453125px) scale(1, 1) translate(-61.69921875px, -197.814453125px);transform: translate(61.69921875px, 197.814453125px) scale(1, 1) translate(-61.69921875px, -197.814453125px);}100%{-webkit-transform: translate(61.69921875px, 197.814453125px) scale(1, 1) translate(-61.69921875px, -197.814453125px);transform: translate(61.69921875px, 197.814453125px) scale(1, 1) translate(-61.69921875px, -197.814453125px);}}@-webkit-keyframes kf_el_i9vLsMvJbm_an_NtPVxm01K{0%{-webkit-transform: translate(61.69921875px, 197.814453125px) translate(-61.69921875px, -197.814453125px) translate(0px, 0px);transform: translate(61.69921875px, 197.814453125px) translate(-61.69921875px, -197.814453125px) translate(0px, 0px);}18.33%{-webkit-transform: translate(61.69921875px, 197.814453125px) translate(-61.69921875px, -197.814453125px) translate(0px, 4px);transform: translate(61.69921875px, 197.814453125px) translate(-61.69921875px, -197.814453125px) translate(0px, 4px);}45%{-webkit-transform: translate(61.69921875px, 197.814453125px) translate(-61.69921875px, -197.814453125px) translate(0px, 3px);transform: translate(61.69921875px, 197.814453125px) translate(-61.69921875px, -197.814453125px) translate(0px, 3px);}61.67%{-webkit-transform: translate(61.69921875px, 197.814453125px) translate(-61.69921875px, -197.814453125px) translate(0px, 0px);transform: translate(61.69921875px, 197.814453125px) translate(-61.69921875px, -197.814453125px) translate(0px, 0px);}100%{-webkit-transform: translate(61.69921875px, 197.814453125px) translate(-61.69921875px, -197.814453125px) translate(0px, 0px);transform: translate(61.69921875px, 197.814453125px) translate(-61.69921875px, -197.814453125px) translate(0px, 0px);}}@keyframes kf_el_i9vLsMvJbm_an_NtPVxm01K{0%{-webkit-transform: translate(61.69921875px, 197.814453125px) translate(-61.69921875px, -197.814453125px) translate(0px, 0px);transform: translate(61.69921875px, 197.814453125px) translate(-61.69921875px, -197.814453125px) translate(0px, 0px);}18.33%{-webkit-transform: translate(61.69921875px, 197.814453125px) translate(-61.69921875px, -197.814453125px) translate(0px, 4px);transform: translate(61.69921875px, 197.814453125px) translate(-61.69921875px, -197.814453125px) translate(0px, 4px);}45%{-webkit-transform: translate(61.69921875px, 197.814453125px) translate(-61.69921875px, -197.814453125px) translate(0px, 3px);transform: translate(61.69921875px, 197.814453125px) translate(-61.69921875px, -197.814453125px) translate(0px, 3px);}61.67%{-webkit-transform: translate(61.69921875px, 197.814453125px) translate(-61.69921875px, -197.814453125px) translate(0px, 0px);transform: translate(61.69921875px, 197.814453125px) translate(-61.69921875px, -197.814453125px) translate(0px, 0px);}100%{-webkit-transform: translate(61.69921875px, 197.814453125px) translate(-61.69921875px, -197.814453125px) translate(0px, 0px);transform: translate(61.69921875px, 197.814453125px) translate(-61.69921875px, -197.814453125px) translate(0px, 0px);}}@-webkit-keyframes kf_el_fsxx7CChj7_an_JkgqX9W9s{0%{-webkit-transform: translate(60.3984375px, 237.599609375px) scale(1, 1) translate(-60.3984375px, -237.599609375px);transform: translate(60.3984375px, 237.599609375px) scale(1, 1) translate(-60.3984375px, -237.599609375px);}31.67%{-webkit-transform: translate(60.3984375px, 237.599609375px) scale(0.92, 1.02) translate(-60.3984375px, -237.599609375px);transform: translate(60.3984375px, 237.599609375px) scale(0.92, 1.02) translate(-60.3984375px, -237.599609375px);}66.67%{-webkit-transform: translate(60.3984375px, 237.599609375px) scale(1, 1) translate(-60.3984375px, -237.599609375px);transform: translate(60.3984375px, 237.599609375px) scale(1, 1) translate(-60.3984375px, -237.599609375px);}100%{-webkit-transform: translate(60.3984375px, 237.599609375px) scale(1, 1) translate(-60.3984375px, -237.599609375px);transform: translate(60.3984375px, 237.599609375px) scale(1, 1) translate(-60.3984375px, -237.599609375px);}}@keyframes kf_el_fsxx7CChj7_an_JkgqX9W9s{0%{-webkit-transform: translate(60.3984375px, 237.599609375px) scale(1, 1) translate(-60.3984375px, -237.599609375px);transform: translate(60.3984375px, 237.599609375px) scale(1, 1) translate(-60.3984375px, -237.599609375px);}31.67%{-webkit-transform: translate(60.3984375px, 237.599609375px) scale(0.92, 1.02) translate(-60.3984375px, -237.599609375px);transform: translate(60.3984375px, 237.599609375px) scale(0.92, 1.02) translate(-60.3984375px, -237.599609375px);}66.67%{-webkit-transform: translate(60.3984375px, 237.599609375px) scale(1, 1) translate(-60.3984375px, -237.599609375px);transform: translate(60.3984375px, 237.599609375px) scale(1, 1) translate(-60.3984375px, -237.599609375px);}100%{-webkit-transform: translate(60.3984375px, 237.599609375px) scale(1, 1) translate(-60.3984375px, -237.599609375px);transform: translate(60.3984375px, 237.599609375px) scale(1, 1) translate(-60.3984375px, -237.599609375px);}}#el_n5s2FvGK2 *{-webkit-animation-duration: 2s;animation-duration: 2s;-webkit-animation-iteration-count: 1;animation-iteration-count: 1;-webkit-animation-play-state: paused;animation-play-state: paused;-webkit-animation-timing-function: cubic-bezier(0, 0, 1, 1);animation-timing-function: cubic-bezier(0, 0, 1, 1);}#el_um1gbhWi0P{fill: #4B7E97;stroke: #FF8080;stroke-width: 1.0001;stroke-linecap: round;stroke-linejoin: round;}#el_PTmWWtJ447{fill: #4B7E97;}#el_b67Eq601cG{fill: #4E9DBE;}#el__Lsvdf47_G{fill: #4B7E97;}#el_oTEoGDVy71{fill: none;stroke: #FF8080;stroke-width: 1.0001;stroke-linecap: round;stroke-linejoin: round;}#el_02qdtUO42K{fill: #4B7E97;}#el_76OlPxGmQ2{fill: #4E9DBE;}#el_nQAApRzr2d{fill: #4B7E97;}#el_DWpHRRtf4D{fill: none;stroke: #FF8080;stroke-width: 1.0001;stroke-linecap: round;stroke-linejoin: round;}#el_QiwyKWtbfoT{fill: #CE5469;stroke: #FF8080;stroke-width: 1;stroke-linecap: round;stroke-linejoin: round;}#el_zIDIibHw9CS{fill: none;stroke: #FF8080;stroke-width: 1;stroke-linecap: round;stroke-linejoin: round;}#el_cjZ9_iZHu3x{fill: none;stroke: #FF8080;stroke-width: 1;stroke-linecap: round;stroke-linejoin: round;}#el_pmrCGSz6ZLG{fill: none;stroke: #FF8080;stroke-width: 1;stroke-linecap: round;stroke-linejoin: round;}#el_tdU6qw-dM9m{fill: #4E9DBE;}#el_BgTerbcIfOb{fill: #4B7E97;}#el_PtOkI87dFdK{fill: none;stroke: #FF8080;stroke-width: 1;stroke-linecap: round;stroke-linejoin: round;}#el_Dx_VJjAZBuZ{fill: #CE5469;stroke: #FF8080;stroke-linecap: round;stroke-linejoin: round;}#el_eqpNZNQcwEe{fill: none;stroke: #FF8080;stroke-width: 1;stroke-linecap: round;stroke-linejoin: round;}#el_jRfX97HQrTm{fill: none;stroke: #FF8080;stroke-linecap: round;stroke-linejoin: round;}#el_eZKivDWZBmU{fill: none;stroke: #FF8080;stroke-linecap: round;stroke-linejoin: round;}#el_aZfzm3qoKYg{fill: none;stroke: #FF8080;stroke-linecap: round;stroke-linejoin: round;}#el_syNjhdCp763{fill: none;stroke: #FF8080;stroke-linecap: round;stroke-linejoin: round;}#el_33jX94I2bfG{fill: #333333;stroke: #FF8080;stroke-linecap: round;stroke-linejoin: round;}#el_HkLNoMH8-_c{fill: #4E9DBE;}#el_FqoV6w0TJk5{fill: #4B839D;}#el_W6bqqioOPPV{fill: none;stroke: #FF8080;stroke-linecap: round;stroke-linejoin: round;}#el_068F3Am60cG{fill: #F9CE6F;stroke: #333333;stroke-width: 0.2648;stroke-linecap: round;stroke-linejoin: round;-webkit-transform: matrix(0.1342, -0.991, 0.991, 0.1342, -70.7607, 96.3875);transform: matrix(0.1342, -0.991, 0.991, 0.1342, -70.7607, 96.3875);}#el_mZ74bU6iiQL{fill: #F9CE6F;stroke: #333333;stroke-width: 0.3177;stroke-linecap: round;stroke-linejoin: round;-webkit-transform: matrix(0.1047, -0.9945, 0.9945, 0.1047, -70.3277, 98.4661);transform: matrix(0.1047, -0.9945, 0.9945, 0.1047, -70.3277, 98.4661);}#el_Mf-Lvr_imnz{fill: #333333;stroke: #333333;stroke-width: 0.265;stroke-linecap: round;stroke-linejoin: round;-webkit-transform: matrix(8.374493e-02, -0.9965, 0.9965, 8.374493e-02, -69.9057, 99.8003);transform: matrix(8.374493e-02, -0.9965, 0.9965, 8.374493e-02, -69.9057, 99.8003);}#el_ASaacLYt41F{fill: #F9CE6F;stroke: #333333;stroke-width: 0.2648;stroke-linecap: round;stroke-linejoin: round;-webkit-transform: matrix(0.991, -0.1342, 0.1342, 0.991, -10.9702, 14.6618);transform: matrix(0.991, -0.1342, 0.1342, 0.991, -10.9702, 14.6618);}#el_-l29stpAJ0d{fill: #F9CE6F;stroke: #333333;stroke-width: 0.3177;stroke-linecap: round;stroke-linejoin: round;-webkit-transform: matrix(0.9945, -0.1047, 0.1047, 0.9945, -8.6733, 11.3198);transform: matrix(0.9945, -0.1047, 0.1047, 0.9945, -8.6733, 11.3198);}#el_xKN3zOP__Dz{fill: #333333;stroke: #333333;stroke-width: 0.265;stroke-linecap: round;stroke-linejoin: round;-webkit-transform: matrix(0.9965, -8.374514e-02, 8.374514e-02, 0.9965, -6.998, 8.9945);transform: matrix(0.9965, -8.374514e-02, 8.374514e-02, 0.9965, -6.998, 8.9945);}#el_fsxx7CChj7_an_MnVgHvx02{-webkit-transform: translate(60.3984375px, 237.599609375px) translate(-60.3984375px, -237.599609375px) translate(0px, -3px);transform: translate(60.3984375px, 237.599609375px) translate(-60.3984375px, -237.599609375px) translate(0px, -3px);}#el_fsxx7CChj7_an_JkgqX9W9s{-webkit-animation-fill-mode: backwards;animation-fill-mode: backwards;-webkit-transform: translate(60.3984375px, 237.599609375px) scale(1, 1) translate(-60.3984375px, -237.599609375px);transform: translate(60.3984375px, 237.599609375px) scale(1, 1) translate(-60.3984375px, -237.599609375px);-webkit-animation-name: kf_el_fsxx7CChj7_an_JkgqX9W9s;animation-name: kf_el_fsxx7CChj7_an_JkgqX9W9s;-webkit-animation-timing-function: cubic-bezier(0.42, 0, 1, 1);animation-timing-function: cubic-bezier(0.42, 0, 1, 1);}#el_i9vLsMvJbm_an_NtPVxm01K{-webkit-animation-fill-mode: backwards;animation-fill-mode: backwards;-webkit-transform: translate(61.69921875px, 197.814453125px) translate(-61.69921875px, -197.814453125px) translate(0px, 0px);transform: translate(61.69921875px, 197.814453125px) translate(-61.69921875px, -197.814453125px) translate(0px, 0px);-webkit-animation-name: kf_el_i9vLsMvJbm_an_NtPVxm01K;animation-name: kf_el_i9vLsMvJbm_an_NtPVxm01K;-webkit-animation-timing-function: cubic-bezier(0.42, 0, 1, 1);animation-timing-function: cubic-bezier(0.42, 0, 1, 1);}#el_i9vLsMvJbm_an_VpexO3kqO{-webkit-animation-fill-mode: backwards;animation-fill-mode: backwards;-webkit-transform: translate(61.69921875px, 197.814453125px) scale(1, 1) translate(-61.69921875px, -197.814453125px);transform: translate(61.69921875px, 197.814453125px) scale(1, 1) translate(-61.69921875px, -197.814453125px);-webkit-animation-name: kf_el_i9vLsMvJbm_an_VpexO3kqO;animation-name: kf_el_i9vLsMvJbm_an_VpexO3kqO;-webkit-animation-timing-function: cubic-bezier(0, 0, 1, 1);animation-timing-function: cubic-bezier(0, 0, 1, 1);}#el_VMNpO9M5ah_an_4vqN4SYM8{-webkit-animation-fill-mode: backwards;animation-fill-mode: backwards;-webkit-transform: translate(61.5px, 179.94921875px) translate(-61.5px, -179.94921875px) translate(0px, 0px);transform: translate(61.5px, 179.94921875px) translate(-61.5px, -179.94921875px) translate(0px, 0px);-webkit-animation-name: kf_el_VMNpO9M5ah_an_4vqN4SYM8;animation-name: kf_el_VMNpO9M5ah_an_4vqN4SYM8;-webkit-animation-timing-function: cubic-bezier(0, 0, 1, 1);animation-timing-function: cubic-bezier(0, 0, 1, 1);}#el_VMNpO9M5ah_an_7nL_X9nKF{-webkit-animation-fill-mode: backwards;animation-fill-mode: backwards;-webkit-transform: translate(61.5px, 179.94921875px) scale(1, 1) translate(-61.5px, -179.94921875px);transform: translate(61.5px, 179.94921875px) scale(1, 1) translate(-61.5px, -179.94921875px);-webkit-animation-name: kf_el_VMNpO9M5ah_an_7nL_X9nKF;animation-name: kf_el_VMNpO9M5ah_an_7nL_X9nKF;-webkit-animation-timing-function: cubic-bezier(0, 0, 1, 1);animation-timing-function: cubic-bezier(0, 0, 1, 1);}#el_6I-5kjQKsbt_an_55L625zgn{-webkit-animation-fill-mode: backwards;animation-fill-mode: backwards;-webkit-transform: translate(61.400390625px, 73.04960632324219px) translate(-61.400390625px, -73.04960632324219px) translate(0px, 0px);transform: translate(61.400390625px, 73.04960632324219px) translate(-61.400390625px, -73.04960632324219px) translate(0px, 0px);-webkit-animation-name: kf_el_6I-5kjQKsbt_an_55L625zgn;animation-name: kf_el_6I-5kjQKsbt_an_55L625zgn;-webkit-animation-timing-function: cubic-bezier(0, 0, 0.58, 1);animation-timing-function: cubic-bezier(0, 0, 0.58, 1);}#el_6I-5kjQKsbt_an_6sRL-EMtZ{-webkit-animation-fill-mode: backwards;animation-fill-mode: backwards;-webkit-transform: translate(61.400390625px, 73.04960632324219px) scale(1, 1) translate(-61.400390625px, -73.04960632324219px);transform: translate(61.400390625px, 73.04960632324219px) scale(1, 1) translate(-61.400390625px, -73.04960632324219px);-webkit-animation-name: kf_el_6I-5kjQKsbt_an_6sRL-EMtZ;animation-name: kf_el_6I-5kjQKsbt_an_6sRL-EMtZ;-webkit-animation-timing-function: cubic-bezier(0, 0, 1, 1);animation-timing-function: cubic-bezier(0, 0, 1, 1);}#el_8rGQ4J-nGbB_an_-DcmO_9f1{-webkit-animation-fill-mode: backwards;animation-fill-mode: backwards;-webkit-transform: translate(56.150001525878906px, 69.59960556030273px) translate(-56.150001525878906px, -69.59960556030273px) translate(0px, 0px);transform: translate(56.150001525878906px, 69.59960556030273px) translate(-56.150001525878906px, -69.59960556030273px) translate(0px, 0px);-webkit-animation-name: kf_el_8rGQ4J-nGbB_an_-DcmO_9f1;animation-name: kf_el_8rGQ4J-nGbB_an_-DcmO_9f1;-webkit-animation-timing-function: cubic-bezier(0, 0, 0.58, 1);animation-timing-function: cubic-bezier(0, 0, 0.58, 1);}#el_8rGQ4J-nGbB_an_MxFmmFgft{-webkit-animation-fill-mode: backwards;animation-fill-mode: backwards;-webkit-transform: translate(56.150001525878906px, 69.59960556030273px) scale(1, 1) translate(-56.150001525878906px, -69.59960556030273px);transform: translate(56.150001525878906px, 69.59960556030273px) scale(1, 1) translate(-56.150001525878906px, -69.59960556030273px);-webkit-animation-name: kf_el_8rGQ4J-nGbB_an_MxFmmFgft;animation-name: kf_el_8rGQ4J-nGbB_an_MxFmmFgft;-webkit-animation-timing-function: cubic-bezier(0, 0, 1, 1);animation-timing-function: cubic-bezier(0, 0, 1, 1);}#el_n5s2FvGK2 *{-webkit-animation-play-state: running;animation-play-state: running;}</style>

<g id="el_fsxx7CChj7_an_JkgqX9W9s" data-animator-group="true" data-animator-type="2"><g id="el_fsxx7CChj7">
	<path d="M72.9,237.5c0-6.9-5.6-12.5-12.5-12.5c-6.9,0-12.5,5.6-12.5,12.5c0,0,0,0.1,0,0.1c0,0,0,0.1,0,0.1&#xA;&#9;&#9;c0,6.9,5.6,12.5,12.5,12.5c6.9,0,12.5-5.6,12.5-12.5c0,0,0,0,0,0c0,0,0-0.1,0-0.1C72.9,237.5,72.9,237.5,72.9,237.5&#xA;&#9;&#9;C72.9,237.5,72.9,237.5,72.9,237.5z" id="el_um1gbhWi0P"/>
</g></g>
<g id="el_i9vLsMvJbm_an_NtPVxm01K" data-animator-group="true" data-animator-type="0"><g id="el_i9vLsMvJbm_an_VpexO3kqO" data-animator-group="true" data-animator-type="2"><g id="el_i9vLsMvJbm">
	<g id="el_ePd17MAbHX">
		<path id="el_PTmWWtJ447" d="M103.4,159.5c-2.6,9.4-10.8,54.9-11.8,60.7l-2.8,1.4c-0.4,1.4-0.6,2.9-0.7,4.4&#xA;&#9;&#9;&#9;c-0.6,8.3,3.4,14.9,8.9,15.1c2.7,0.2,5.6-0.5,8.4-2.1c2.4-2.8,4.3-6.2,5.6-10l0,0c3.2-8.5,4.7-22.4,3.9-36.5&#xA;&#9;&#9;&#9;c-0.7-12.2-3-23.2-6.3-30C107.5,160.2,105.5,159.5,103.4,159.5L103.4,159.5z"/>
		<path d="M88.1,226.1c0.1-1.5,0.4-3,0.7-4.4c0,0,4.6-52.2,12.8-63.5c1.4-1.6,3.5-3.8,5.9-3.8c2.1,0,4.7,0,7.2,3&#xA;&#9;&#9;&#9;c4.8,5.8,5.6,17.8,6.3,30c0.8,14.2-0.7,28-3.9,36.5l0,0c-2.3,6.5-6.5,12-11.4,15c-2.8,1.7-5.8,2.5-8.6,2.3&#xA;&#9;&#9;&#9;C91.4,241.1,87.5,234.4,88.1,226.1z" id="el_b67Eq601cG"/>
		<path d="M102.6,157.1c2.6,1.1,4.6,3.5,5.4,4.5c0,0,0.1,0.1,0.1,0.1c0.2,0.2,0.2,0.3,0.2,0.3l0.1,0.2&#xA;&#9;&#9;&#9;c0.1,0.1,0.1,0.2,0.2,0.3c3.3,6.8,5.6,17.8,6.3,30c0.8,14.2-0.7,28-3.9,36.5l0,0c-1.3,3.8-3.3,7.2-5.6,10&#xA;&#9;&#9;&#9;c-0.4,0.2-0.8,0.5-1.2,0.7c-0.1,0-0.1,0-0.2,0.1c-0.4,0.2-0.7,0.3-1.1,0.5c-0.1,0-0.1,0-0.2,0.1c-0.4,0.1-0.8,0.3-1.2,0.4&#xA;&#9;&#9;&#9;c0,0,0,0-0.1,0c-0.4,0.1-0.9,0.2-1.3,0.3c0,0,0,0,0,0c0,0,0,0,0,0c-0.3,0.1-0.7,0.1-1,0.1c0,0,0,0-0.1,0c0,0,0,0-0.1,0&#xA;&#9;&#9;&#9;c-0.3,0-0.6,0-0.9,0c-0.1,0-0.1,0-0.2,0c-0.3,0-0.6,0-0.9,0c-2.8-0.1-5.2-1.8-6.8-4.5c-0.8-1.4-1.4-3.1-1.8-4.9&#xA;&#9;&#9;&#9;c-0.1-0.7-0.2-1.4-0.3-2.1c-0.1-0.7-0.1-1.4-0.1-2.1c0-0.5,0-1,0.1-1.5c0.1-1.5,0.4-3,0.7-4.4c0,0,4.6-52.2,12.8-63.5&#xA;&#9;&#9;&#9;C101.9,157.8,102.3,157.4,102.6,157.1z" id="el__Lsvdf47_G"/>
		<path d="M88.1,226.1c0.1-1.5,0.4-3,0.7-4.4c0,0,4.6-52.2,12.8-63.5c1.4-1.6,3.5-3.8,5.9-3.8c2.1,0,4.7,0,7.2,3&#xA;&#9;&#9;&#9;c4.8,5.8,5.6,17.8,6.3,30c0.8,14.2-0.7,28-3.9,36.5l0,0c-2.3,6.5-6.5,12-11.4,15c-2.8,1.7-5.8,2.5-8.6,2.3&#xA;&#9;&#9;&#9;C91.4,241.1,87.5,234.4,88.1,226.1z" id="el_oTEoGDVy71"/>
	</g>
	<g id="el_gToZ6Ijc-b">
		<path id="el_02qdtUO42K" d="M19.9,159.5c-2.1,0-4.1,0.7-5.3,3c-3.3,6.8-5.6,17.8-6.3,30c-0.8,14.2,0.7,28,3.9,36.5l0,0&#xA;&#9;&#9;&#9;c1.3,3.8,3.3,7.2,5.6,10c2.8,1.6,5.7,2.3,8.4,2.1c5.6-0.2,9.5-6.9,8.9-15.1c-0.1-1.5-0.4-3-0.7-4.4l-2.8-1.4&#xA;&#9;&#9;&#9;C30.7,214.5,22.5,168.9,19.9,159.5L19.9,159.5z"/>
		<path d="M35.3,226.1c-0.1-1.5-0.4-3-0.7-4.4c0,0-4.6-52.2-12.8-63.5c-1.4-1.6-3.5-3.8-5.9-3.8c-2.1,0-4.7,0-7.2,3&#xA;&#9;&#9;&#9;c-4.8,5.8-5.6,17.8-6.3,30c-0.8,14.2,0.7,28,3.9,36.5l0,0c2.3,6.5,6.5,12,11.4,15c2.8,1.7,5.8,2.5,8.6,2.3&#xA;&#9;&#9;&#9;C31.9,241.1,35.8,234.4,35.3,226.1z" id="el_76OlPxGmQ2"/>
		<path d="M20.7,157.1c-2.6,1.1-4.6,3.5-5.4,4.5c0,0-0.1,0.1-0.1,0.1c-0.2,0.2-0.2,0.3-0.2,0.3l-0.1,0.2&#xA;&#9;&#9;&#9;c-0.1,0.1-0.1,0.2-0.2,0.3c-3.3,6.8-5.6,17.8-6.3,30c-0.8,14.2,0.7,28,3.9,36.5l0,0c1.3,3.8,3.3,7.2,5.6,10&#xA;&#9;&#9;&#9;c0.4,0.2,0.8,0.5,1.2,0.7c0.1,0,0.1,0,0.2,0.1c0.4,0.2,0.7,0.3,1.1,0.5c0.1,0,0.1,0,0.2,0.1c0.4,0.1,0.8,0.3,1.2,0.4&#xA;&#9;&#9;&#9;c0,0,0,0,0.1,0c0.4,0.1,0.9,0.2,1.3,0.3c0,0,0,0,0,0c0,0,0,0,0,0c0.3,0.1,0.7,0.1,1,0.1c0,0,0,0,0.1,0c0,0,0,0,0.1,0&#xA;&#9;&#9;&#9;c0.3,0,0.6,0,0.9,0c0.1,0,0.1,0,0.2,0c0.3,0,0.6,0,0.9,0c2.8-0.1,5.2-1.8,6.8-4.5c0.8-1.4,1.4-3.1,1.8-4.9&#xA;&#9;&#9;&#9;c0.1-0.7,0.2-1.4,0.3-2.1c0.1-0.7,0.1-1.4,0.1-2.1c0-0.5,0-1-0.1-1.5c-0.1-1.5-0.4-3-0.7-4.4c0,0-4.6-52.2-12.8-63.5&#xA;&#9;&#9;&#9;C21.4,157.8,21.1,157.4,20.7,157.1z" id="el_nQAApRzr2d"/>
		<path d="M35.3,226.1c-0.1-1.5-0.4-3-0.7-4.4c0,0-4.6-52.2-12.8-63.5c-1.4-1.6-3.5-3.8-5.9-3.8c-2.1,0-4.7,0-7.2,3&#xA;&#9;&#9;&#9;c-4.8,5.8-5.6,17.8-6.3,30c-0.8,14.2,0.7,28,3.9,36.5l0,0c2.3,6.5,6.5,12,11.4,15c2.8,1.7,5.8,2.5,8.6,2.3&#xA;&#9;&#9;&#9;C31.9,241.1,35.8,234.4,35.3,226.1z" id="el_DWpHRRtf4D"/>
	</g>
</g></g></g>
<g id="el_VMNpO9M5ah_an_4vqN4SYM8" data-animator-group="true" data-animator-type="0"><g id="el_VMNpO9M5ah_an_7nL_X9nKF" data-animator-group="true" data-animator-type="2"><g id="el_VMNpO9M5ah">
	<g id="el_VtGwRwYp-0">
		<g id="el_OONcrfmiL6F">
			<path id="el_QiwyKWtbfoT" d="M58,122.2c-13,0-25.1,5.6-32.1,14.8c-6.9,7.8-11.2,21.6-11.2,36.4c0,5.7,0.6,11.3,1.9,16.6&#xA;&#9;&#9;&#9;&#9;c0,0,0,0,0,0c1.9,9.6,6.6,20,13.1,28.7c7.5,10.1,16.6,17,24.5,18.5c1.2,0.3,4.1,0.5,7.3,0.5c2.8,0,5.4-0.2,6.8-0.4&#xA;&#9;&#9;&#9;&#9;c8-1.3,17.3-8.2,25-18.6c6.5-8.7,11.2-19.1,13.1-28.7c0,0,0,0,0,0c1.2-5.3,1.9-10.9,1.9-16.6c0-14.8-4.2-28.5-11.2-36.4&#xA;&#9;&#9;&#9;&#9;c-7-9.2-19.1-14.8-32.1-14.8c-1.1,0-2.3,0.1-3.4,0.2C60.3,122.3,59.1,122.2,58,122.2L58,122.2z"/>
			<path id="el_zIDIibHw9CS" d="M59.3,122.2c-8,0-15.5,5.6-19.9,14.8c-4.3,7.8-6.9,21.6-6.9,36.4c0,5.7,0.4,11.3,1.2,16.6&#xA;&#9;&#9;&#9;&#9;c0,0,0,0,0,0c1.2,9.6,4.1,20,8.1,28.7c4.7,10.1,10.3,17,15.2,18.5c0.7,0.3,2.5,0.5,4.5,0.5c1.7,0,3.3-0.2,4.2-0.4&#xA;&#9;&#9;&#9;&#9;c5-1.3,10.7-8.2,15.5-18.6c4-8.7,6.9-19.1,8.1-28.7c0,0,0,0,0,0c0.8-5.3,1.2-10.9,1.2-16.6c0-14.8-2.6-28.5-6.9-36.4&#xA;&#9;&#9;&#9;&#9;c-4.3-9.2-11.8-14.8-19.9-14.8c-0.7,0-1.4,0.1-2.1,0.2C60.7,122.3,60,122.2,59.3,122.2L59.3,122.2z"/>
			<path id="el_cjZ9_iZHu3x" d="M60.5,122.2c-3.4,0-6.5,5.6-8.3,14.8c-1.8,7.8-2.9,21.6-2.9,36.4c0,5.7,0.2,11.3,0.5,16.6&#xA;&#9;&#9;&#9;&#9;c0,0,0,0,0,0c0.5,9.6,1.7,20,3.4,28.7c1.9,10.1,4.3,17,6.3,18.5c0.3,0.3,1,0.5,1.9,0.5c0.7,0,1.4-0.2,1.7-0.4&#xA;&#9;&#9;&#9;&#9;c2.1-1.3,4.5-8.2,6.5-18.6c1.7-8.7,2.9-19.1,3.4-28.7c0,0,0,0,0,0c0.3-5.3,0.5-10.9,0.5-16.6c0-14.8-1.1-28.5-2.9-36.4&#xA;&#9;&#9;&#9;&#9;c-1.8-9.2-4.9-14.8-8.3-14.8c-0.3,0-0.6,0.1-0.9,0.2C61.1,122.3,60.8,122.2,60.5,122.2L60.5,122.2z"/>
			<path id="el_pmrCGSz6ZLG" d="M14.7,174.5c0,4.3,0.6,8.5,1.9,12.5l0,0c1.9,7.2,6.6,15,13.1,21.5&#xA;&#9;&#9;&#9;&#9;c7.5,7.6,16.6,12.7,24.5,13.8c1.2,0.2,4.1,0.4,7.3,0.4c2.8,0,5.4-0.1,6.8-0.3c8-1,17.3-6.2,25-13.9c6.5-6.5,11.2-14.3,13.1-21.5&#xA;&#9;&#9;&#9;&#9;v0c1.2-3.9,1.9-8.2,1.9-12.5"/>
		</g>
		<g id="el_6fxgR3CdMtw">
			<path d="M93.4,133.8L93.4,133.8C93.4,133.8,93.4,133.8,93.4,133.8c-7.2-6.9-17.5-10.9-28.5-10.9&#xA;&#9;&#9;&#9;&#9;c-1.1,0-2.3,0.1-3.4,0.2c-1.1-0.1-2.3-0.1-3.4-0.2l0,0c-11.1,0-21.5,4.1-28.6,11c-0.2,0.2-0.6,0.7-0.6,0.7c-1,1-1.9,2.1-2.8,3.2&#xA;&#9;&#9;&#9;&#9;c0,0,0,0,0,0c-0.4,0.4-0.8,0.9-1.1,1.4c-0.3,0.4-0.6,0.8-0.8,1.1c-0.1,0.1-0.1,0.2-0.2,0.3c-0.3,0.5-0.6,0.9-0.9,1.4c0,0,0,0,0,0&#xA;&#9;&#9;&#9;&#9;c-1.6,2.6-3.1,5.6-4.2,9c-0.2,1.8-0.3,3.7-0.3,5.6c0,4.5,0.6,9,1.7,13.2l0,0c1.7,7.7,6.1,15.9,12.1,22.8&#xA;&#9;&#9;&#9;&#9;c18.3,20.3,43.5,17.3,58.8,0c6-6.9,10.3-15.2,12.1-22.8v0c1.1-4.2,1.7-8.7,1.7-13.2c0-1.9-0.1-3.8-0.3-5.6&#xA;&#9;&#9;&#9;&#9;c-1.2-3.3-2.6-6.3-4.2-8.9c0-0.1-0.1-0.1-0.1-0.2c-0.3-0.4-0.6-0.9-0.8-1.3c-0.1-0.1-0.2-0.3-0.3-0.4c-0.2-0.3-0.5-0.7-0.7-1&#xA;&#9;&#9;&#9;&#9;c-0.4-0.5-0.7-0.9-1.1-1.4c0,0,0,0,0,0C95.9,136.3,94.7,135,93.4,133.8z M61.4,153.5C61.4,153.5,61.4,153.5,61.4,153.5&#xA;&#9;&#9;&#9;&#9;c-13.7,0-24.8-6.6-25.3-14.9c0.4-7.8,11.6-14,25.3-14c13.7,0,24.8,6.2,25.3,14C86.3,146.9,75.1,153.5,61.4,153.5z" id="el_tdU6qw-dM9m"/>
			<path d="M100.8,176.3c-1.6-9.2-4.6-17-8.5-22.1c-2.3-3.4-5.2-6.4-8.6-8.8c-4.3,4.9-12.7,8.2-22.3,8.2c0,0,0,0,0,0&#xA;&#9;&#9;&#9;&#9;c-9.7,0-18.1-3.3-22.3-8.2c-3.4,2.4-6.3,5.4-8.6,8.8c-3.9,5.1-6.9,12.9-8.5,22.1c2.3,5.7,5.7,11.3,10,16.3&#xA;&#9;&#9;&#9;&#9;c18.3,20.3,43.5,17.3,58.8,0C95.1,187.6,98.6,181.9,100.8,176.3z" id="el_BgTerbcIfOb"/>
			<path d="M93.4,133.8L93.4,133.8C93.4,133.8,93.4,133.8,93.4,133.8c-7.2-6.9-17.5-10.9-28.5-10.9&#xA;&#9;&#9;&#9;&#9;c-1.1,0-2.3,0.1-3.4,0.2c-1.1-0.1-2.3-0.1-3.4-0.2l0,0c-11.1,0-21.5,4.1-28.6,11c-0.2,0.2-0.6,0.7-0.6,0.7c-1,1-1.9,2.1-2.8,3.2&#xA;&#9;&#9;&#9;&#9;c0,0,0,0,0,0c-0.4,0.4-0.8,0.9-1.1,1.4c-0.3,0.4-0.6,0.8-0.8,1.1c-0.1,0.1-0.1,0.2-0.2,0.3c-0.3,0.5-0.6,0.9-0.9,1.4c0,0,0,0,0,0&#xA;&#9;&#9;&#9;&#9;c-1.6,2.6-3.1,5.6-4.2,9c-0.2,1.8-0.3,3.7-0.3,5.6c0,4.5,0.6,9,1.7,13.2l0,0c1.7,7.7,6.1,15.9,12.1,22.8&#xA;&#9;&#9;&#9;&#9;c18.3,20.3,43.5,17.3,58.8,0c6-6.9,10.3-15.2,12.1-22.8v0c1.1-4.2,1.7-8.7,1.7-13.2c0-1.9-0.1-3.8-0.3-5.6&#xA;&#9;&#9;&#9;&#9;c-1.2-3.3-2.6-6.3-4.2-8.9c0-0.1-0.1-0.1-0.1-0.2c-0.3-0.4-0.6-0.9-0.8-1.3c-0.1-0.1-0.2-0.3-0.3-0.4c-0.2-0.3-0.5-0.7-0.7-1&#xA;&#9;&#9;&#9;&#9;c-0.4-0.5-0.7-0.9-1.1-1.4c0,0,0,0,0,0C95.9,136.3,94.7,135,93.4,133.8z M61.4,153.5C61.4,153.5,61.4,153.5,61.4,153.5&#xA;&#9;&#9;&#9;&#9;c-13.7,0-24.8-6.6-25.3-14.9c0.4-7.8,11.6-14,25.3-14c13.7,0,24.8,6.2,25.3,14C86.3,146.9,75.1,153.5,61.4,153.5z" id="el_PtOkI87dFdK"/>
		</g>
	</g>
</g></g></g>
<g id="el_6I-5kjQKsbt_an_55L625zgn" data-animator-group="true" data-animator-type="0"><g id="el_6I-5kjQKsbt_an_6sRL-EMtZ" data-animator-group="true" data-animator-type="2"><g id="el_6I-5kjQKsbt">
	<g id="el_4q0h2zin5L2">
		<g id="el_YdZhwZ7-o94">
			<path d="M70.1,50.6c-0.6-5.9-1.6-16.7-1.6-16.7L66.3,8.2c0-0.4-0.1-0.8-0.2-1.1c-0.4-2.2-2.3-3.9-4.6-3.9&#xA;&#9;&#9;&#9;&#9;c-2.6,0-4.7,2.1-4.7,4.7l-2.2,25.7c0,0-1,11.1-1.6,17C25,53.9,3.5,73.2,3.5,96.5c0,25.6,25.9,46.4,57.9,46.4s57.9-20.8,57.9-46.4&#xA;&#9;&#9;&#9;&#9;C119.3,73.2,98,54,70.1,50.6z" id="el_Dx_VJjAZBuZ"/>
			<ellipse id="el_eqpNZNQcwEe" cx="61.4" cy="96.5" rx="40.6" ry="46.4"/>
			<ellipse id="el_jRfX97HQrTm" cx="61.4" cy="96.5" rx="11.9" ry="46.4"/>
			<path id="el_eZKivDWZBmU" d="M119.3,96.5c0,17.4-25.9,31.6-57.9,31.6S3.5,114,3.5,96.5"/>
			<path id="el_aZfzm3qoKYg" d="M119.3,96.5c0,3-25.9,5.4-57.9,5.4S3.5,99.5,3.5,96.5"/>
			<path id="el_syNjhdCp763" d="M119.3,93.6c0-13.1-25.9-23.7-57.9-23.7S3.5,80.5,3.5,93.6"/>
		</g>
		<line x1="61.4" y1="50.1" x2="61.4" y2="3.2" id="el_33jX94I2bfG"/>
	</g>
</g></g></g>
<g id="el_8rGQ4J-nGbB_an_-DcmO_9f1" data-animator-group="true" data-animator-type="0"><g id="el_8rGQ4J-nGbB_an_MxFmmFgft" data-animator-group="true" data-animator-type="2"><g id="el_8rGQ4J-nGbB">
	<g id="el_vqS-4-O8-nq">
		<path id="el_HkLNoMH8-_c" d="M61.5,30.2c-15,0-27.2,21.7-27.2,48.5l0,3.3c0,11.1,12.6,20.3,27.2,20.3&#xA;&#9;&#9;&#9;c14.5,0,27.2-9.2,27.2-20.3l0-3.3C88.7,51.9,76.5,30.2,61.5,30.2L61.5,30.2z"/>
		<path id="el_FqoV6w0TJk5" d="M61.5,38.3c-11.6,0-20.9,22.4-20.9,50l0,3.4c0,1.1,0.1,2.2,0.3,3.3c5.1,4.4,12.6,7.3,20.6,7.3&#xA;&#9;&#9;&#9;c8.1,0,15.6-2.8,20.6-7.3c0.2-1.1,0.3-2.2,0.3-3.3l0-3.4C82.5,60.7,73.1,38.3,61.5,38.3L61.5,38.3z"/>
		<path id="el_W6bqqioOPPV" d="M61.5,30.2c-15,0-27.2,21.7-27.2,48.5l0,3.3c0,11.1,12.6,20.3,27.2,20.3&#xA;&#9;&#9;&#9;c14.5,0,27.2-9.2,27.2-20.3l0-3.3C88.7,51.9,76.5,30.2,61.5,30.2L61.5,30.2z"/>
	</g>
	<g id="el_ZGT3RfB_oxB">

			<ellipse id="el_068F3Am60cG" cx="19.8" cy="88.7" rx="20.3" ry="9.5"/>

			<ellipse id="el_mZ74bU6iiQL" cx="19.5" cy="88.3" rx="13.8" ry="5.8"/>

			<ellipse id="el_Mf-Lvr_imnz" cx="19.3" cy="87.9" rx="7" ry="2.6"/>
	</g>
	<g id="el_wfm6wvIExd9">

			<ellipse id="el_ASaacLYt41F" cx="103.3" cy="88.7" rx="9.5" ry="20.3"/>

			<ellipse id="el_-l29stpAJ0d" cx="103.5" cy="88.3" rx="5.8" ry="13.8"/>

			<ellipse id="el_xKN3zOP__Dz" cx="103.7" cy="87.9" rx="2.6" ry="7"/>
	</g>
</g></g></g>
</svg>
