<?xml version="1.0" encoding="UTF-8" standalone="no"?>
<!-- Created with Inkscape (http://www.inkscape.org/) -->

<svg
   xmlns:dc="http://purl.org/dc/elements/1.1/"
   xmlns:cc="http://creativecommons.org/ns#"
   xmlns:rdf="http://www.w3.org/1999/02/22-rdf-syntax-ns#"
   xmlns:svg="http://www.w3.org/2000/svg"
   xmlns="http://www.w3.org/2000/svg"
   xmlns:sodipodi="http://sodipodi.sourceforge.net/DTD/sodipodi-0.dtd"
   xmlns:inkscape="http://www.inkscape.org/namespaces/inkscape"
   version="1.1"
   id="svg2"
   xml:space="preserve"
   width="188.97638"
   height="188.97636"
   viewBox="0 0 188.97637 188.97637"
   sodipodi:docname="porygon_sticker.svg"
   inkscape:version="0.92.1 r15371"><metadata
     id="metadata8"><rdf:RDF><cc:Work
         rdf:about=""><dc:format>image/svg+xml</dc:format><dc:type
           rdf:resource="http://purl.org/dc/dcmitype/StillImage" /><dc:title></dc:title></cc:Work></rdf:RDF></metadata><defs
     id="defs6"><path
       style="opacity:1;vector-effect:none;fill:none;fill-opacity:1;stroke:#333333;stroke-width:0.74999994;stroke-linecap:round;stroke-linejoin:round;stroke-miterlimit:4;stroke-dasharray:none;stroke-dashoffset:0;stroke-opacity:1;paint-order:markers fill stroke"
       d="m 166.68519,-408.90547 c 51.61272,-20.51563 88.10023,-70.91566 88.10023,-129.8378 0,-77.13504 -62.5303,-139.66535 -139.66534,-139.66535 -77.135041,0 -139.665343,62.53031 -139.665343,139.66535 0,58.9964 36.579532,109.44919 88.29544,129.91522"
       id="circle4815"
       inkscape:connector-curvature="0"
       sodipodi:nodetypes="csssc" /></defs><sodipodi:namedview
     pagecolor="#ffffff"
     bordercolor="#666666"
     borderopacity="1"
     objecttolerance="10"
     gridtolerance="10"
     guidetolerance="10"
     inkscape:pageopacity="0"
     inkscape:pageshadow="2"
     inkscape:window-width="1707"
     inkscape:window-height="937"
     id="namedview4"
     showgrid="false"
     showguides="true"
     inkscape:guide-bbox="true"
     inkscape:snap-global="true"
     inkscape:snap-intersection-paths="true"
     inkscape:snap-object-midpoints="true"
     inkscape:zoom="1.9590685"
     inkscape:cx="76.386287"
     inkscape:cy="126.42375"
     inkscape:window-x="-8"
     inkscape:window-y="-8"
     inkscape:window-maximized="1"
     inkscape:current-layer="g10"
     fit-margin-top="0"
     fit-margin-left="0"
     fit-margin-right="0"
     fit-margin-bottom="0"><sodipodi:guide
       position="-60.233093,451.23537"
       orientation="0,1"
       id="guide4791"
       inkscape:locked="false" /></sodipodi:namedview><g
     id="g10"
     inkscape:groupmode="layer"
     inkscape:label="CCF06052019"
     transform="matrix(1.3333333,0,0,-1.3333333,53.041665,-744.07569)"><circle
       style="opacity:1;vector-effect:none;fill:#ce5469;fill-opacity:1;stroke:#333333;stroke-width:0.90000004;stroke-linecap:round;stroke-linejoin:round;stroke-miterlimit:4;stroke-dasharray:none;stroke-dashoffset:0;stroke-opacity:1;paint-order:markers fill stroke"
       id="path5560"
       cx="116.34416"
       cy="203.21793"
       transform="scale(1,-1)"
       r="0" /><path
       style="opacity:1;vector-effect:none;fill:#000000;fill-opacity:1;stroke:none;stroke-width:0.75;stroke-linecap:round;stroke-linejoin:round;stroke-miterlimit:4;stroke-dasharray:none;stroke-dashoffset:0;stroke-opacity:1;paint-order:markers fill stroke"
       d="m 31.084543,-576.00277 a 52.919614,52.919613 0 0 1 -52.919554,-52.92022 52.919614,52.919613 0 0 1 52.919554,-52.91955 52.919614,52.919613 0 0 1 52.91955,52.91955 52.919614,52.919613 0 0 1 -52.91955,52.92022 z"
       id="path6325"
       inkscape:connector-curvature="0" /><path
       style="color:#000000;font-style:normal;font-variant:normal;font-weight:normal;font-stretch:normal;font-size:medium;line-height:normal;font-family:sans-serif;font-variant-ligatures:normal;font-variant-position:normal;font-variant-caps:normal;font-variant-numeric:normal;font-variant-alternates:normal;font-feature-settings:normal;text-indent:0;text-align:start;text-decoration:none;text-decoration-line:none;text-decoration-style:solid;text-decoration-color:#000000;letter-spacing:normal;word-spacing:normal;text-transform:none;writing-mode:lr-tb;direction:ltr;text-orientation:mixed;dominant-baseline:auto;baseline-shift:baseline;text-anchor:start;white-space:normal;shape-padding:0;clip-rule:nonzero;display:inline;overflow:visible;visibility:visible;opacity:1;isolation:auto;mix-blend-mode:normal;color-interpolation:sRGB;color-interpolation-filters:linearRGB;solid-color:#000000;solid-opacity:1;vector-effect:none;fill:#333333;fill-opacity:1;fill-rule:nonzero;stroke:none;stroke-width:0.74999994;stroke-linecap:round;stroke-linejoin:round;stroke-miterlimit:4;stroke-dasharray:none;stroke-dashoffset:0;stroke-opacity:1;paint-order:markers fill stroke;color-rendering:auto;image-rendering:auto;shape-rendering:auto;text-rendering:auto;enable-background:accumulate"
       d="m 31.084893,-566.90352 c -12.332995,0 -23.8270597,-3.59991 -33.4853513,-9.80686 a 0.1702935,0.1702935 0 1 1 0.1843995,-0.28635 c 9.6053302,6.17291 21.0342058,9.75278 33.3009518,9.75278 12.352052,0 23.854776,-3.63012 33.50131,-9.88222 a 0.17023192,0.17023192 0 1 1 0.185284,0.28547 c -9.699713,6.28656 -21.267836,9.93718 -33.686594,9.93718 z"
       id="circle6108"
       inkscape:connector-curvature="0" /><g
       aria-label="IN A MISSION FROM THE HYPERSPACE"
       transform="matrix(-0.44816675,-0.15861349,-0.15861349,0.44816675,-1.862016,-369.38725)"
       style="font-style:normal;font-weight:normal;font-size:30px;line-height:1;font-family:sans-serif;letter-spacing:0px;word-spacing:0px;fill:#000000;fill-opacity:1;stroke:none;stroke-width:2.1034615"
       id="text4832"><path
         d="m 161.00547,-427.76118 10.89148,-5.16863 0.97971,2.06449 -4.1819,1.98455 6.5126,13.72352 4.1819,-1.98455 0.97972,2.06449 -10.89148,5.16863 -0.97971,-2.06449 4.1819,-1.98455 -6.5126,-13.72353 -4.18191,1.98456 z"
         style="font-style:normal;font-variant:normal;font-weight:normal;font-stretch:normal;font-family:'Liberation Mono';-inkscape-font-specification:'Liberation Mono';letter-spacing:3.75000024px;stroke-width:2.1034615"
         id="path4773"
         inkscape:connector-curvature="0" /><path
         d="m 196.44956,-425.14098 -15.62301,-9.37742 q 1.61397,1.94886 2.29114,2.94096 l 7.23408,10.59854 -2.05679,1.40388 -11.14017,-16.32127 2.68594,-1.83329 15.78586,9.40814 q -1.40694,-1.59358 -2.48049,-3.16642 l -7.13499,-10.45335 2.08099,-1.42039 11.14016,16.32126 z"
         style="font-style:normal;font-variant:normal;font-weight:normal;font-stretch:normal;font-family:'Liberation Mono';-inkscape-font-specification:'Liberation Mono';letter-spacing:3.75000024px;stroke-width:2.1034615"
         id="path4775"
         inkscape:connector-curvature="0" /><path
         d="m 229.11662,-457.799 -5.65603,-1.84596 -5.07033,6.5043 3.1794,5.02301 -1.76516,2.26438 -10.99188,-18.04098 1.95428,-2.50698 20.09687,6.36096 z m -17.68575,-6.02301 0.34249,0.48987 1.82781,2.70641 3.527,5.55399 4.16974,-5.349 -7.33449,-2.50431 z"
         style="font-style:normal;font-variant:normal;font-weight:normal;font-stretch:normal;font-family:'Liberation Mono';-inkscape-font-specification:'Liberation Mono';letter-spacing:3.75000024px;stroke-width:2.1034615"
         id="path4777"
         inkscape:connector-curvature="0" /><path
         d="m 247.96644,-495.2536 -11.94266,-4.36348 q -1.85745,-0.67865 -2.75045,-1.05172 l -1.3608,-0.54398 q 2.51259,1.91614 3.52625,2.76996 l 5.20193,4.4583 -0.68871,1.88496 -6.86086,0.0821 q -0.72339,0.0164 -4.48641,-0.14203 l 4.16151,1.45811 11.94267,4.36349 -0.80433,2.20141 -18.56066,-6.7815 1.19141,-3.26084 7.65807,-0.0872 q 0.83479,-0.0225 3.52013,0.22565 l -1.10759,-0.81016 -1.70505,-1.30918 -5.81182,-5.00864 1.13109,-3.09574 18.56066,6.7815 z"
         style="font-style:normal;font-variant:normal;font-weight:normal;font-stretch:normal;font-family:'Liberation Mono';-inkscape-font-specification:'Liberation Mono';letter-spacing:3.75000024px;stroke-width:2.1034615"
         id="path4779"
         inkscape:connector-curvature="0" /><path
         d="m 231.62203,-509.60685 2.31914,-11.83049 2.24248,0.43959 -0.89046,4.54245 14.90671,2.92218 0.89046,-4.54245 2.24247,0.43959 -2.31914,11.8305 -2.24247,-0.4396 0.89046,-4.54245 -14.90671,-2.92217 -0.89047,4.54245 z"
         style="font-style:normal;font-variant:normal;font-weight:normal;font-stretch:normal;font-family:'Liberation Mono';-inkscape-font-specification:'Liberation Mono';letter-spacing:3.75000024px;stroke-width:2.1034615"
         id="path4781"
         inkscape:connector-curvature="0" /><path
         d="m 249.55462,-541.03129 q 2.69332,0.10355 4.12502,2.13759 1.43227,2.01941 1.29214,5.66418 -0.25719,6.68939 -5.5391,7.57111 l -0.43748,-2.72879 q 1.90401,-0.33725 2.81715,-1.59216 0.89851,-1.25547 0.98124,-3.4072 0.0895,-2.32739 -0.77191,-3.56256 -0.86082,-1.24982 -2.52951,-1.31397 -1.02464,-0.0394 -1.68726,0.41889 -0.66207,0.44364 -1.10175,1.20367 -0.43968,0.76004 -0.72622,1.73119 -0.30062,0.95596 -0.58773,1.94175 -0.70538,2.33302 -1.22726,3.32445 -0.52131,0.97678 -1.15916,1.55329 -0.65249,0.57594 -1.46938,0.85238 -0.81689,0.27644 -1.90007,0.2348 -2.53231,-0.0974 -3.82551,-1.92085 -1.30728,-1.83869 -1.17954,-5.16143 0.11931,-3.10318 1.26552,-4.70095 1.14622,-1.59777 3.7472,-2.14278 l 0.37724,2.77045 q -1.65292,0.28827 -2.42532,1.31404 -0.78704,1.02521 -0.85738,2.85491 -0.15926,4.14245 2.95855,4.26232 0.87826,0.0338 1.44912,-0.32543 0.55679,-0.37439 0.94805,-1.01902 0.37719,-0.65982 0.64516,-1.52907 0.26853,-0.88389 0.57084,-1.88376 0.59054,-2.01493 0.97617,-2.89432 0.37099,-0.87995 0.83657,-1.55104 0.46614,-0.68572 1.08542,-1.16033 0.61928,-0.4746 1.43504,-0.72177 0.81632,-0.2618 1.91415,-0.21959 z"
         style="font-style:normal;font-variant:normal;font-weight:normal;font-stretch:normal;font-family:'Liberation Mono';-inkscape-font-specification:'Liberation Mono';letter-spacing:3.75000024px;stroke-width:2.1034615"
         id="path4783"
         inkscape:connector-curvature="0" /><path
         d="m 247.5979,-561.85508 q 2.67736,-0.3106 4.40398,1.4799 1.72493,1.77595 2.14524,5.39911 0.77142,6.64975 -4.31287,8.33081 l -0.85067,-2.62945 q 1.8298,-0.62517 2.53976,-2.00524 0.6954,-1.37838 0.44726,-3.51736 -0.26839,-2.31358 -1.30896,-3.4021 -1.04226,-1.10306 -2.70105,-0.91063 -1.01856,0.11816 -1.6031,0.67261 -0.58622,0.5399 -0.90418,1.35836 -0.31796,0.81846 -0.45223,1.82207 -0.1505,0.99074 -0.28308,2.00889 -0.33937,2.41358 -0.70308,3.4733 -0.36539,1.04516 -0.90732,1.71264 -0.55647,0.66917 -1.32132,1.06758 -0.76485,0.39841 -1.84162,0.52332 -2.51729,0.29202 -4.07477,-1.31164 -1.57372,-1.61654 -1.9569,-4.91958 -0.35785,-3.08478 0.52985,-4.83939 0.88771,-1.75461 3.37439,-2.69193 l 0.79752,2.67985 q -1.58918,0.53828 -2.19519,1.67034 -0.62056,1.13375 -0.40956,2.95261 0.47771,4.11789 3.57704,3.75834 0.87305,-0.10128 1.3821,-0.54374 0.4928,-0.45533 0.78061,-1.15232 0.27158,-0.70985 0.40311,-1.60991 0.12985,-0.91461 0.27529,-1.949 0.27464,-2.08165 0.5209,-3.00977 0.2317,-0.92642 0.58889,-1.66095 0.3555,-0.74909 0.89469,-1.31302 0.53919,-0.56394 1.30742,-0.93325 0.76654,-0.38385 1.85785,-0.51045 z"
         style="font-style:normal;font-variant:normal;font-weight:normal;font-stretch:normal;font-family:'Liberation Mono';-inkscape-font-specification:'Liberation Mono';letter-spacing:3.75000024px;stroke-width:2.1034615"
         id="path4786"
         inkscape:connector-curvature="0" /><path
         d="m 232.25888,-565.19406 -3.23575,-11.61331 2.20131,-0.61334 1.2424,4.45906 14.63305,-4.07713 -1.2424,-4.45906 2.20131,-0.61334 3.23575,11.61331 -2.20131,0.61334 -1.2424,-4.45906 -14.63305,4.07713 1.2424,4.45906 z"
         style="font-style:normal;font-variant:normal;font-weight:normal;font-stretch:normal;font-family:'Liberation Mono';-inkscape-font-specification:'Liberation Mono';letter-spacing:3.75000024px;stroke-width:2.1034615"
         id="path4788"
         inkscape:connector-curvature="0" /><path
         d="m 230.03556,-599.38749 q 4.4903,-2.05098 7.72476,-1.38649 3.22837,0.65115 4.7377,3.95558 1.51541,3.31776 -0.0724,6.15264 -1.58779,2.83488 -6.15803,4.92237 -4.4903,2.05098 -7.62655,1.38996 -3.13626,-0.66103 -4.67602,-4.03208 -1.50324,-3.29111 0.0118,-6.10888 1.50176,-2.81169 6.05867,-4.8931 z m 1.22329,2.67819 q -7.10186,3.24384 -5.21521,7.37437 1.89883,4.15719 9.00069,0.91335 3.59757,-1.64321 4.95553,-3.5357 1.35796,-1.89249 0.42681,-3.93111 -0.99202,-2.17186 -3.30779,-2.30582 -2.31577,-0.13396 -5.86003,1.48491 z"
         style="font-style:normal;font-variant:normal;font-weight:normal;font-stretch:normal;font-family:'Liberation Mono';-inkscape-font-specification:'Liberation Mono';letter-spacing:3.75000024px;stroke-width:2.1034615"
         id="path4790"
         inkscape:connector-curvature="0" /><path
         d="m 229.8956,-618.41159 -9.60345,15.4851 q 1.97211,-1.58548 2.97394,-2.24816 l 10.70254,-7.07932 1.37384,2.07698 -16.48142,10.90183 -1.79407,-2.71229 9.63653,-15.64749 q -1.61385,1.38364 -3.20213,2.43422 l -10.55592,6.98234 -1.39001,-2.10141 16.48142,-10.90183 z"
         style="font-style:normal;font-variant:normal;font-weight:normal;font-stretch:normal;font-family:'Liberation Mono';-inkscape-font-specification:'Liberation Mono';letter-spacing:3.75000024px;stroke-width:2.1034615"
         id="path4793"
         inkscape:connector-curvature="0" /><path
         d="m 194.18372,-631.96979 4.53117,-5.64207 -7.72073,-6.20054 1.44924,-1.80455 7.72073,6.20054 4.96227,-6.17887 2.18145,1.75193 -12.37357,15.4072 -10.17629,-8.17261 1.43089,-1.78171 z"
         style="font-style:normal;font-variant:normal;font-weight:normal;font-stretch:normal;font-family:'Liberation Mono';-inkscape-font-specification:'Liberation Mono';letter-spacing:3.75000024px;stroke-width:2.1034615"
         id="path4796"
         inkscape:connector-curvature="0" /><path
         d="m 180.21904,-662.44314 0.45465,9.97404 3.02326,1.73619 4.19457,-7.30411 2.42624,1.39333 -9.84084,17.13607 -6.12274,-3.51615 q -2.95975,-1.69971 -3.80189,-3.82186 -0.84943,-2.10945 0.46365,-4.39595 1.08695,-1.89272 3.02509,-2.50268 1.92544,-0.61726 4.10945,0.19777 l -0.72606,-10.50153 z m -6.74227,12.56407 q -1.62677,2.83273 2.23488,5.05038 l 3.45516,1.98422 3.42861,-5.97032 -3.55678,-2.04257 q -1.8165,-1.04317 -3.24879,-0.78461 -1.44499,0.25127 -2.31308,1.7629 z"
         style="font-style:normal;font-variant:normal;font-weight:normal;font-stretch:normal;font-family:'Liberation Mono';-inkscape-font-specification:'Liberation Mono';letter-spacing:3.75000024px;stroke-width:2.1034615"
         id="path4798"
         inkscape:connector-curvature="0" /><path
         d="m 154.39189,-662.61243 q 1.76191,-4.61139 4.53338,-6.40646 2.75778,-1.8003 6.15132,-0.5037 3.40723,1.30183 4.26394,4.43611 0.8567,3.13427 -0.93658,7.82776 -1.76192,4.61139 -4.46096,6.34004 -2.69904,1.72866 -6.16101,0.40591 -3.37986,-1.29137 -4.27639,-4.36245 -0.90176,-3.0574 0.8863,-7.73721 z m 2.75041,1.05087 q -2.78664,7.29339 1.45529,8.91414 4.2693,1.63121 7.05594,-5.66217 1.41163,-3.69459 1.05212,-5.99596 -0.35952,-2.30138 -2.45312,-3.1013 -2.23043,-0.8522 -3.97497,0.67662 -1.74455,1.52882 -3.13526,5.16867 z"
         style="font-style:normal;font-variant:normal;font-weight:normal;font-stretch:normal;font-family:'Liberation Mono';-inkscape-font-specification:'Liberation Mono';letter-spacing:3.75000024px;stroke-width:2.1034615"
         id="path4800"
         inkscape:connector-curvature="0" /><path
         d="m 139.49853,-676.37023 -2.62822,12.44025 q -0.40877,1.93483 -0.6516,2.87166 l -0.34579,1.42413 q 1.541,-2.75862 2.24267,-3.88299 l 3.67668,-5.78087 1.96349,0.41482 1.05291,6.78008 q 0.11869,0.71378 0.49476,4.46132 l 0.85407,-4.32607 2.62822,-12.44024 2.29313,0.48446 -4.08464,19.33398 -3.3967,-0.71762 -1.17079,-7.56855 q -0.1405,-0.82318 -0.27514,-3.5166 l -0.64515,1.21116 -1.05451,1.87326 -4.13511,6.46256 -3.22472,-0.68128 4.08464,-19.33398 z"
         style="font-style:normal;font-variant:normal;font-weight:normal;font-stretch:normal;font-family:'Liberation Mono';-inkscape-font-specification:'Liberation Mono';letter-spacing:3.75000024px;stroke-width:2.1034615"
         id="path4802"
         inkscape:connector-curvature="0" /><path
         d="m 101.26159,-660.16521 -1.761706,-17.38656 2.769026,-0.28057 1.76171,17.38656 6.4562,-0.65418 0.23037,2.27351 -15.681428,1.58894 -0.230367,-2.27352 z"
         style="font-style:normal;font-variant:normal;font-weight:normal;font-stretch:normal;font-family:'Liberation Mono';-inkscape-font-specification:'Liberation Mono';letter-spacing:3.75000024px;stroke-width:2.1034615"
         id="path4804"
         inkscape:connector-curvature="0" /><path
         d="m 75.816844,-672.8572 2.320242,8.82609 7.395218,-1.94408 -2.320242,-8.8261 2.705914,-0.71134 5.024086,19.1114 -2.705913,0.71134 -2.107956,-8.01857 -7.395218,1.94409 2.107956,8.01857 -2.705913,0.71134 -5.024087,-19.1114 z"
         style="font-style:normal;font-variant:normal;font-weight:normal;font-stretch:normal;font-family:'Liberation Mono';-inkscape-font-specification:'Liberation Mono';letter-spacing:3.75000024px;stroke-width:2.1034615"
         id="path4806"
         inkscape:connector-curvature="0" /><path
         d="m 65.071212,-669.3424 7.946052,18.09274 -12.325595,5.41321 -0.918891,-2.09226 9.76391,-4.28816 -2.485719,-5.65985 -8.959191,3.93474 -0.907111,-2.06544 8.959192,-3.93474 -2.715441,-6.18292 -10.3138,4.52966 -0.918891,-2.09226 z"
         style="font-style:normal;font-variant:normal;font-weight:normal;font-stretch:normal;font-family:'Liberation Mono';-inkscape-font-specification:'Liberation Mono';letter-spacing:3.75000024px;stroke-width:2.1034615"
         id="path4808"
         inkscape:connector-curvature="0" /><path
         d="m 19.684836,-640.78834 6.051295,6.83119 5.723733,-5.07026 -6.051295,-6.8312 2.094317,-1.85521 13.103044,14.79179 -2.094316,1.85521 -5.497645,-6.20619 -5.723734,5.07027 5.497645,6.20619 -2.094316,1.85521 -13.103044,-14.79179 z"
         style="font-style:normal;font-variant:normal;font-weight:normal;font-stretch:normal;font-family:'Liberation Mono';-inkscape-font-specification:'Liberation Mono';letter-spacing:3.75000024px;stroke-width:2.1034615"
         id="path4810"
         inkscape:connector-curvature="0" /><path
         d="m 13.166302,-621.19647 -6.5916717,-5.45276 1.7553391,-2.12198 6.5916716,5.45276 13.153703,1.67977 -1.914066,2.31386 -10.388428,-1.48347 3.423093,9.90366 -1.914067,2.31385 z"
         style="font-style:normal;font-variant:normal;font-weight:normal;font-stretch:normal;font-family:'Liberation Mono';-inkscape-font-specification:'Liberation Mono';letter-spacing:3.75000024px;stroke-width:2.1034615"
         id="path4812"
         inkscape:connector-curvature="0" /><path
         d="m 3.073266,-596.52669 q -1.5743942,-0.9349 -2.35996555,-2.42358 -0.79305062,-1.47608 -0.65558984,-3.2855 0.12998155,-1.79682 1.21446949,-3.62312 l 2.1016628,-3.53924 -6.4739088,-3.84432 1.4285324,-2.40567 16.9908615,10.08947 -3.440444,5.79377 q -1.780056,2.99765 -4.092558,3.82215 -2.3073858,0.84457 -4.71306,-0.58396 z m 1.3982261,-2.44071 q 3.1991689,1.89972 5.6523559,-2.23149 l 1.839889,-3.0984 -6.688026,-3.97147 -1.8997237,3.19917 q -1.1144048,1.87667 -0.8306929,3.49325 0.2762327,1.62916 1.9261977,2.60894 z"
         style="font-style:normal;font-variant:normal;font-weight:normal;font-stretch:normal;font-family:'Liberation Mono';-inkscape-font-specification:'Liberation Mono';letter-spacing:3.75000024px;stroke-width:2.1034615"
         id="path4814"
         inkscape:connector-curvature="0" /><path
         d="m -12.197566,-596.62531 18.3538831,7.3227 -4.9885545,12.5035 -2.1224653,-0.84681 3.9517602,-9.90484 -5.7415408,-2.29071 -3.6260657,9.0885 -2.0952542,-0.83595 3.6260657,-9.0885 -6.2721575,-2.50242 -4.174318,10.46266 -2.122465,-0.8468 z"
         style="font-style:normal;font-variant:normal;font-weight:normal;font-stretch:normal;font-family:'Liberation Mono';-inkscape-font-specification:'Liberation Mono';letter-spacing:3.75000024px;stroke-width:2.1034615"
         id="path4816"
         inkscape:connector-curvature="0" /><path
         d="m -22.204512,-564.83719 9.399466,-3.36724 0.770504,-3.40012 -8.214573,-1.86151 0.618346,-2.72867 19.27210141,4.36727 -1.56043291,6.88596 q -0.7543172,3.32868 -2.5350442,4.75757 -1.7664408,1.43213 -4.3379591,0.8494 -2.1286462,-0.48238 -3.2815222,-2.1555 -1.156115,-1.65883 -1.019283,-3.98594 l -9.823834,3.78175 z m 13.9911328,2.74999 q 3.1858255,0.72194 4.1699989,-3.62107 l 0.8805763,-3.88585 -6.7145201,-1.52158 -0.9064759,4.00014 q -0.46295,2.04293 0.205325,3.33588 0.6650364,1.30723 2.3650958,1.69248 z"
         style="font-style:normal;font-variant:normal;font-weight:normal;font-stretch:normal;font-family:'Liberation Mono';-inkscape-font-specification:'Liberation Mono';letter-spacing:3.75000024px;stroke-width:2.1034615"
         id="path4818"
         inkscape:connector-curvature="0" /><path
         d="m -19.324933,-540.3719 q -2.689226,-0.18102 -4.061789,-2.25543 -1.373546,-2.0598 -1.128568,-5.69902 0.449619,-6.67922 5.754723,-7.40854 l 0.358756,2.74024 q -1.912929,0.28232 -2.861814,1.51042 -0.93427,1.22909 -1.078895,3.37755 -0.156432,2.32384 0.669044,3.5833 0.824493,1.27407 2.490644,1.38623 1.023076,0.0689 1.698619,-0.37015 0.674559,-0.4244 1.135933,-1.17147 0.461374,-0.74706 0.775753,-1.70957 0.32801,-0.9469 0.643373,-1.92402 0.772245,-2.31175 1.322437,-3.28774 0.549209,-0.96138 1.203392,-1.51929 0.668798,-0.55692 1.493304,-0.80974 0.824505,-0.25281 1.906042,-0.18 2.5284573,0.1702 3.7686402,2.03016 1.2538144,1.87556 1.0304808,5.19324 -0.2085759,3.09846 -1.4003036,4.66258 -1.1917277,1.56411 -3.8073205,2.03403 l -0.2973434,-2.78016 q 1.6605328,-0.24057 2.4621379,-1.24369 0.8162205,-1.00213 0.9392015,-2.82905 0.2784291,-4.13614 -2.8346427,-4.3457 -0.8769212,-0.059 -1.4578852,0.28358 -0.567332,0.35821 -0.97699,0.99131 -0.396025,0.64869 -0.688902,1.50987 -0.29386,0.8758 -0.624823,1.86655 -0.648292,1.9971 -1.059075,2.86502 -0.396169,0.86891 -0.88087,1.52632 -0.485686,0.67202 -1.118366,1.1286 -0.632681,0.45659 -1.455219,0.68017 -0.823522,0.23819 -1.919674,0.1644 z"
         style="font-style:normal;font-variant:normal;font-weight:normal;font-stretch:normal;font-family:'Liberation Mono';-inkscape-font-specification:'Liberation Mono';letter-spacing:3.75000024px;stroke-width:2.1034615"
         id="path4820"
         inkscape:connector-curvature="0" /><path
         d="m -9.5886912,-520.35804 q -1.8242088,0.15819 -3.3303198,-0.59341 -1.504846,-0.737 -2.447971,-2.2873 -0.94186,-1.5357 -1.125361,-3.65178 l -0.355614,-4.10082 -7.501145,0.65048 -0.241716,-2.78739 19.6868587,-1.70719 0.5821428,6.71308 q 0.3011956,3.4733 -1.0970738,5.49129 -1.3824103,2.03132 -4.1698009,2.27304 z m -0.2867624,-2.79819 q 3.7067918,-0.32144 3.2916987,-5.10817 l -0.3113198,-3.59004 -7.7492383,0.672 0.321444,3.70679 q 0.188564,2.17446 1.361472,3.32253 1.174173,1.16268 3.0859434,0.99689 z"
         style="font-style:normal;font-variant:normal;font-weight:normal;font-stretch:normal;font-family:'Liberation Mono';-inkscape-font-specification:'Liberation Mono';letter-spacing:3.75000024px;stroke-width:2.1034615"
         id="path4822"
         inkscape:connector-curvature="0" /><path
         d="m -18.991548,-499.13535 4.94686,-3.30558 -1.979637,-8.00595 -5.913823,-0.60496 -0.689181,-2.78715 20.9762683,2.50889 0.76302176,3.08577 -17.42136006,11.86769 z m 15.6655051,-10.18108 -0.5967809,-0.0335 -3.257293,-0.23575 -6.5460772,-0.65988 1.628015,6.58394 6.5017701,-4.21821 z"
         style="font-style:normal;font-variant:normal;font-weight:normal;font-stretch:normal;font-family:'Liberation Mono';-inkscape-font-specification:'Liberation Mono';letter-spacing:3.75000024px;stroke-width:2.1034615"
         id="path4824"
         inkscape:connector-curvature="0" /><path
         d="m -6.1372323,-492.42584 q -3.6846189,1.55427 -5.0497447,3.48148 -1.345936,1.93501 -0.343912,4.31045 0.575025,1.36317 1.959657,2.08276 1.3981292,0.7139 3.6796803,0.65768 l 0.027947,2.51605 q -5.8691033,0.1069 -7.7706713,-4.40102 -1.497342,-3.54965 0.137123,-6.49669 1.640158,-2.93353 6.2155641,-4.86357 9.2992763,-3.92269 12.3508938,3.31158 1.9300342,4.57541 -1.8683335,8.19676 l -1.8337673,-1.8974 q 1.3144826,-1.14272 1.7420008,-2.57903 0.4467084,-1.42851 -0.1397032,-2.81868 -0.9735571,-2.30794 -3.187186,-2.69374 -2.2079356,-0.3723 -5.919548,1.19337 z"
         style="font-style:normal;font-variant:normal;font-weight:normal;font-stretch:normal;font-family:'Liberation Mono';-inkscape-font-specification:'Liberation Mono';letter-spacing:3.75000024px;stroke-width:2.1034615"
         id="path4826"
         inkscape:connector-curvature="0" /><path
         d="m -7.1340622,-470.83719 16.7915307,-10.41784 7.0971065,11.43915 -1.941793,1.20473 -5.6220822,-9.0617 -5.2527991,3.25896 5.1587238,8.31485 -1.9168983,1.18929 -5.1587237,-8.31486 -5.7382474,3.56014 5.9387105,9.57204 -1.94179303,1.20473 z"
         style="font-style:normal;font-variant:normal;font-weight:normal;font-stretch:normal;font-family:'Liberation Mono';-inkscape-font-specification:'Liberation Mono';letter-spacing:3.75000024px;stroke-width:2.1034615"
         id="path4828"
         inkscape:connector-curvature="0" /></g><path
       style="color:#000000;font-style:normal;font-variant:normal;font-weight:normal;font-stretch:normal;font-size:medium;line-height:normal;font-family:sans-serif;font-variant-ligatures:normal;font-variant-position:normal;font-variant-caps:normal;font-variant-numeric:normal;font-variant-alternates:normal;font-feature-settings:normal;text-indent:0;text-align:start;text-decoration:none;text-decoration-line:none;text-decoration-style:solid;text-decoration-color:#000000;letter-spacing:normal;word-spacing:normal;text-transform:none;writing-mode:lr-tb;direction:ltr;text-orientation:mixed;dominant-baseline:auto;baseline-shift:baseline;text-anchor:start;white-space:normal;shape-padding:0;clip-rule:nonzero;display:inline;overflow:visible;visibility:visible;opacity:1;isolation:auto;mix-blend-mode:normal;color-interpolation:sRGB;color-interpolation-filters:linearRGB;solid-color:#000000;solid-opacity:1;vector-effect:none;fill:#333333;fill-opacity:1;fill-rule:nonzero;stroke:none;stroke-width:0.74999994;stroke-linecap:round;stroke-linejoin:round;stroke-miterlimit:4;stroke-dasharray:none;stroke-dashoffset:0;stroke-opacity:1;paint-order:markers fill stroke;color-rendering:auto;image-rendering:auto;shape-rendering:auto;text-rendering:auto;enable-background:accumulate"
       d="m 31.084893,-558.05678 c -39.1363262,0 -70.866143,-31.72981 -70.866143,-70.86614 -2e-6,-39.13633 31.7298149,-70.86614 70.866143,-70.86614 39.136331,-1e-5 70.866147,31.72981 70.866147,70.86614 0,39.13633 -31.72982,70.86614 -70.866147,70.86614 z m 0,-0.34042 c 38.952345,0 70.525717,-31.57337 70.525717,-70.52572 0,-38.95235 -31.573368,-70.52572 -70.525717,-70.52571 -38.9523462,0 -70.525715,31.57336 -70.525713,70.52571 0,38.95235 31.5733687,70.52572 70.525713,70.52572 z"
       id="circle4788"
       inkscape:connector-curvature="0" /><path
       style="color:#000000;font-style:normal;font-variant:normal;font-weight:normal;font-stretch:normal;font-size:medium;line-height:normal;font-family:sans-serif;font-variant-ligatures:normal;font-variant-position:normal;font-variant-caps:normal;font-variant-numeric:normal;font-variant-alternates:normal;font-feature-settings:normal;text-indent:0;text-align:start;text-decoration:none;text-decoration-line:none;text-decoration-style:solid;text-decoration-color:#000000;letter-spacing:normal;word-spacing:normal;text-transform:none;writing-mode:lr-tb;direction:ltr;text-orientation:mixed;dominant-baseline:auto;baseline-shift:baseline;text-anchor:start;white-space:normal;shape-padding:0;clip-rule:nonzero;display:inline;overflow:visible;visibility:visible;opacity:1;isolation:auto;mix-blend-mode:normal;color-interpolation:sRGB;color-interpolation-filters:linearRGB;solid-color:#000000;solid-opacity:1;vector-effect:none;fill:#000000;fill-opacity:1;fill-rule:nonzero;stroke:none;stroke-width:0.75;stroke-linecap:round;stroke-linejoin:round;stroke-miterlimit:4;stroke-dasharray:none;stroke-dashoffset:0;stroke-opacity:1;paint-order:markers fill stroke;color-rendering:auto;image-rendering:auto;shape-rendering:auto;text-rendering:auto;enable-background:accumulate"
       d="m 31.084544,-575.83256 c -29.318901,-3e-5 -53.090104,-23.77153 -53.089769,-53.09043 3.4e-5,-29.31864 23.7711267,-53.08973 53.089769,-53.08977 29.318634,4e-5 53.089728,23.77113 53.089764,53.08977 3.36e-4,29.3189 -23.770867,53.09039 -53.089764,53.09043 z m 0,-0.34043 c 29.134911,-4e-5 52.749666,-23.61509 52.749334,-52.75 -3.2e-5,-29.13466 -23.614682,-52.7493 -52.749334,-52.74934 -29.1346604,4e-5 -52.749306,23.61468 -52.74934,52.74934 -3.32e-4,29.13492 23.6144209,52.74997 52.74934,52.75 z"
       id="path5064"
       inkscape:connector-curvature="0" /><path
       style="opacity:1;vector-effect:none;fill:#4e9dbe;fill-opacity:1;stroke:none;stroke-width:0.75;stroke-linecap:round;stroke-linejoin:round;stroke-miterlimit:4;stroke-dasharray:none;stroke-dashoffset:0;stroke-opacity:1;paint-order:markers fill stroke"
       d="m 53.388453,-629.64111 c 0.975255,0 1.862306,-0.30284 2.388987,-1.35173 v 0 c 1.496611,-3.09158 2.551222,-8.09448 2.873042,-13.62915 0.367491,-6.44134 -0.305343,-12.72847 -1.775287,-16.58865 l -0.0086,-0.0225 c -1.037494,-2.96798 -2.930842,-5.45328 -5.176262,-6.79464 -1.290039,-0.76485 -2.636643,-1.11644 -3.914281,-1.02197 -2.529611,0.09 -4.31251,3.10949 -4.059884,6.87576 0.04815,0.67279 0.160764,1.34442 0.334438,1.99471 l 1.254007,0.64627 c 0.476371,2.64743 4.209524,23.32876 5.371743,27.57483 0.211674,1.33398 1.36146,2.31635 2.712136,2.31717 z"
       id="path5429"
       inkscape:connector-curvature="0"
       sodipodi:nodetypes="cccccccccccccc" /><path
       inkscape:connector-curvature="0"
       style="opacity:1;vector-effect:none;fill:#4b7e97;fill-opacity:1;stroke:none;stroke-width:2.83500004;stroke-linecap:round;stroke-linejoin:round;stroke-miterlimit:4;stroke-dasharray:none;stroke-dashoffset:0;stroke-opacity:1;paint-order:markers fill stroke"
       d="m 50.676158,-631.9579 c 0.975259,0 1.86231,-0.30285 2.388996,-1.35175 1.496602,-3.09158 2.551222,-8.09449 2.873037,-13.62916 0.367492,-6.44134 -0.305338,-12.72848 -1.775287,-16.58865 l -0.0086,-0.0226 c -0.598803,-1.713 -1.48373,-3.26368 -2.555879,-4.52797 -1.262124,-0.72772 -2.575052,-1.06367 -3.822524,-0.97142 -2.529625,0.09 -4.312524,3.10947 -4.059898,6.87574 0.04816,0.6728 0.160774,1.34442 0.334448,1.99471 l 1.254007,0.64629 c 0.47637,2.64742 4.209524,23.32874 5.371742,27.57482 z"
       id="path5431" /><path
       sodipodi:nodetypes="cccccccccccccc"
       inkscape:connector-curvature="0"
       id="path5433"
       d="m 9.6439958,-629.64111 c -0.9752588,0 -1.86231,-0.30284 -2.3889958,-1.35173 v 0 c -1.4966022,-3.09158 -2.5512175,-8.09447 -2.8730371,-13.62915 -0.3674918,-6.44134 0.3053383,-12.72847 1.7752871,-16.58864 l 0.00862,-0.0225 c 1.0374894,-2.96797 2.9308426,-5.45328 5.176258,-6.79464 1.290039,-0.76484 2.636648,-1.11644 3.914281,-1.02197 2.529611,0.09 4.31251,3.10949 4.059889,6.87577 -0.04816,0.67279 -0.160769,1.34442 -0.334443,1.99471 l -1.254007,0.64627 c -0.476371,2.64743 -4.209519,23.32875 -5.371742,27.57482 -0.21167,1.33398 -1.361457,2.31635 -2.7121371,2.31717 z"
       style="opacity:1;vector-effect:none;fill:#4e9dbe;fill-opacity:1;stroke:none;stroke-width:0.75;stroke-linecap:round;stroke-linejoin:round;stroke-miterlimit:4;stroke-dasharray:none;stroke-dashoffset:0;stroke-opacity:1;paint-order:markers fill stroke" /><path
       id="path5435"
       d="m 12.356287,-631.9579 c -0.975264,0 -1.862315,-0.30285 -2.3889958,-1.35175 -1.4966027,-3.09158 -2.551218,-8.09448 -2.8730422,-13.62916 -0.3674872,-6.44134 0.3053474,-12.72848 1.7752871,-16.58864 l 0.00862,-0.0226 c 0.5988024,-1.71301 1.4837339,-3.26368 2.5558839,-4.52798 1.262123,-0.72772 2.575047,-1.06366 3.822518,-0.97142 2.529616,0.09 4.31252,3.10947 4.059898,6.87575 -0.04816,0.67279 -0.160778,1.34441 -0.334452,1.9947 l -1.254003,0.64629 c -0.476372,2.64742 -4.20952,23.32874 -5.371744,27.57482 z"
       style="opacity:1;vector-effect:none;fill:#4b7e97;fill-opacity:1;stroke:none;stroke-width:2.83500004;stroke-linecap:round;stroke-linejoin:round;stroke-miterlimit:4;stroke-dasharray:none;stroke-dashoffset:0;stroke-opacity:1;paint-order:markers fill stroke"
       inkscape:connector-curvature="0" /><path
       inkscape:connector-curvature="0"
       id="path5437"
       d="m 29.960077,-615.02523 a 17.322052,14.568159 0 0 1 -14.567342,-6.71351 10.744803,19.442856 0 0 1 -5.074534,-16.50019 10.744803,19.442856 0 0 1 0.851742,-7.53535 9.6872536,18.586484 29.699175 0 1 9.08e-4,-0.003 9.6872536,18.586484 29.699175 0 1 5.92627,-13.03209 9.6872536,18.586484 29.699175 0 1 11.109851,-8.37577 3.5410446,0.37224239 0 0 1 3.309891,-0.24001 3.5410446,0.37224239 0 0 1 3.066519,0.18683 18.586484,9.6872536 60.300825 0 1 11.353198,8.42895 18.586484,9.6872536 60.300825 0 1 5.926276,13.03209 18.586484,9.6872536 60.300825 0 1 0,0.003 10.744803,19.442856 0 0 1 0.851741,7.53535 10.744803,19.442856 0 0 1 -5.074528,16.50019 17.322052,14.568159 0 0 1 -14.566675,6.71351 17.322052,14.568159 0 0 1 -1.557199,-0.0705 17.322052,14.568159 0 0 1 -1.555873,0.0705 z"
       style="opacity:1;vector-effect:none;fill:#ce5469;fill-opacity:1;stroke:none;stroke-width:0.75;stroke-linecap:round;stroke-linejoin:round;stroke-miterlimit:4;stroke-dasharray:none;stroke-dashoffset:0;stroke-opacity:1;paint-order:markers fill stroke" /><path
       inkscape:connector-curvature="0"
       id="path5439"
       d="m 29.960077,-615.02523 a 17.322052,14.568159 0 0 1 -14.567342,-6.71351 10.744803,19.442856 0 0 1 -3.352435,-6.00073 c -0.09132,-0.8365 -0.141206,-1.68948 -0.141623,-2.5539 0.0032,-2.06021 0.271268,-4.09912 0.787908,-5.99609 l 4.43e-4,-0.003 c 0.79041,-3.47577 2.768802,-7.21616 5.484774,-10.36916 8.325464,-9.22507 19.743489,-7.83625 26.68917,0 2.715981,3.153 4.694382,6.89339 5.484792,10.36916 v 0.003 c 0.516636,1.89697 0.7845,3.93588 0.787904,5.99609 -3.4e-4,0.86803 -0.05026,1.72407 -0.142286,2.56388 a 10.744803,19.442856 0 0 1 -3.351776,5.99075 17.322052,14.568159 0 0 1 -14.56535,6.71351 17.322052,14.568159 0 0 1 -0.0014,0 17.322052,14.568159 0 0 1 -3.41e-4,0 17.322052,14.568159 0 0 1 -1.55654,-0.0705 17.322052,14.568159 0 0 1 -1.555864,0.0705 z"
       style="opacity:1;vector-effect:none;fill:#4e9dbe;fill-opacity:1;stroke:none;stroke-width:0.75;stroke-linecap:round;stroke-linejoin:round;stroke-miterlimit:4;stroke-dasharray:none;stroke-dashoffset:0;stroke-opacity:1;paint-order:markers fill stroke" /><path
       inkscape:connector-curvature="0"
       id="path5441"
       d="m 42.974201,-621.45218 a 26.274656,10.676331 0 0 0 -11.933663,-1.16494 26.274656,10.676331 0 0 0 -10.985513,0.99045 11.485369,7.0054999 0 0 1 -0.0246,-0.29545 11.485369,7.0054999 0 0 1 11.485503,-7.00547 11.485369,7.0054999 0 0 1 11.485526,7.00547 11.485369,7.0054999 0 0 1 -0.02728,0.46994 z"
       style="opacity:1;vector-effect:none;fill:#ce5469;fill-opacity:1;stroke:none;stroke-width:2.83500004;stroke-linecap:round;stroke-linejoin:round;stroke-miterlimit:4;stroke-dasharray:none;stroke-dashoffset:0;stroke-opacity:1;paint-order:markers fill stroke" /><path
       inkscape:connector-curvature="0"
       id="path5443"
       d="m 25.54354,-666.28536 a 5.6572407,5.6572407 0 0 1 -0.115674,-1.13746 5.6572407,5.6572407 0 0 1 5.65671,-5.65739 5.6572407,5.6572407 0 0 1 5.657385,5.65739 5.6572407,5.6572407 0 0 1 -0.06116,0.7891 18.583413,9.6856531 60.300825 0 0 -2.098083,-0.60496 3.5404597,0.37218088 0 0 0 -3.06602,-0.18681 3.5404597,0.37218088 0 0 0 -3.309341,0.24 9.6856531,18.583413 29.699175 0 0 -2.663818,0.90013 z"
       style="opacity:1;vector-effect:none;fill:#4b7e97;fill-opacity:1;stroke:none;stroke-width:0.75;stroke-linecap:round;stroke-linejoin:round;stroke-miterlimit:4;stroke-dasharray:none;stroke-dashoffset:0;stroke-opacity:1;paint-order:markers fill stroke" /><path
       id="path5445"
       d="m 19.149586,-627.33285 a 14.973832,14.568159 0 0 1 -1.57116,-1.96544 9.2882117,19.442856 0 0 1 -4.386361,-16.50022 9.2882117,19.442856 0 0 1 0.736045,-7.53533 8.626112,18.043321 24.097437 0 1 4.43e-4,-0.003 8.626112,18.043321 24.097437 0 1 0.09641,-0.4867 9.6872536,18.586484 29.699175 0 1 3.071844,-4.98544 9.6872536,18.586484 29.699175 0 1 11.109848,-8.37577 3.5410446,0.37224239 0 0 1 3.309886,-0.24003 3.5410446,0.37224239 0 0 1 3.066524,0.18683 18.586484,9.6872536 60.300825 0 1 11.353203,8.42897 18.586484,9.6872536 60.300825 0 1 3.071194,4.98477 18.043321,8.626112 65.902564 0 1 0.09708,0.48737 18.043321,8.626112 65.902564 0 1 0,0.003 9.2882117,19.442856 0 0 1 0.73605,7.53533 9.2882117,19.442856 0 0 1 -3.393009,14.99022 c -3.484912,-1.90074 -9.711297,-4.23077 -9.96888,-4.23077 -0.359207,0 -15.230243,2.80189 -15.230243,2.80189 0,0 -1.228239,2.77945 -2.099095,4.90432 z"
       style="opacity:1;vector-effect:none;fill:#ac4857;fill-opacity:1;stroke:none;stroke-width:2.83464527;stroke-linecap:round;stroke-linejoin:round;stroke-miterlimit:4;stroke-dasharray:none;stroke-dashoffset:0;stroke-opacity:1;paint-order:markers fill stroke"
       inkscape:connector-curvature="0" /><path
       id="path5447"
       d="m 30.170998,-622.58478 a 14.973832,14.568159 0 0 1 -0.194145,-0.01 26.274656,10.676331 0 0 1 0.642954,-0.0133 14.973832,14.568159 0 0 1 -0.448809,0.0233 z m 2.690862,0 a 14.973832,14.568159 0 0 1 -0.161568,-0.009 26.274656,10.676331 0 0 1 0.242686,0.005 14.973832,14.568159 0 0 1 -0.08112,0.004 z m 8.687615,-2.73009 a 11.485369,7.0054999 0 0 0 -10.033375,-3.61241 11.485369,7.0054999 0 0 0 -10.040683,3.60709 14.973832,14.568159 0 0 1 -3.896991,-3.9781 9.2882117,19.442856 0 0 1 -3.870397,-10.16902 c 1.023863,-2.49128 2.56237,-4.98644 4.464152,-7.19424 8.325457,-9.22506 19.743482,-7.83625 26.689163,0 1.900098,2.20584 3.437633,4.69852 4.461497,7.18759 a 9.2882117,19.442856 0 0 1 -3.869067,10.17567 14.973832,14.568159 0 0 1 -3.904299,3.98342 z"
       style="opacity:1;vector-effect:none;fill:#4b7e97;fill-opacity:1;stroke:none;stroke-width:2.83464527;stroke-linecap:round;stroke-linejoin:round;stroke-miterlimit:4;stroke-dasharray:none;stroke-dashoffset:0;stroke-opacity:1;paint-order:markers fill stroke"
       inkscape:connector-curvature="0" /><path
       id="path5449"
       d="m 32.858537,-623.56684 v -3.4e-4 c 0.0271,-9.1e-4 0.05402,-9.1e-4 0.08112,-0.002 l -0.243353,-0.003 c -0.396192,-0.004 -0.791676,-0.0169 -1.186189,-0.0399 -0.298793,0.0157 -0.598507,0.0254 -0.898276,0.0299 h -0.008 c -0.212201,0.002 -0.424375,0.005 -0.636313,0.009 -3.050261,-0.031 -6.012409,-0.64013 -8.492137,-1.74669 a 11.485369,7.0054999 0 0 1 10.040693,-3.60709 11.485369,7.0054999 0 0 1 10.028046,3.60709 c -2.532798,1.13074 -5.565792,1.74685 -8.685609,1.75335 z m 8.704228,-1.75136 c -3.4e-4,-0.002 -0.0014,-0.004 -0.0023,-0.005 a 14.973832,14.568159 0 0 0 0.0113,-0.009 c 0.05179,-0.0232 0.106877,-0.0428 0.158254,-0.0665 -0.05544,0.0271 -0.111524,0.0538 -0.167559,0.0805 z m -20.088678,-0.003 c -0.005,-0.002 -0.01026,-0.005 -0.0153,-0.007 3.41e-4,-10e-4 9.08e-4,-0.003 0.0014,-0.005 a 14.973832,14.568159 0 0 0 0.01398,0.0113 z m -0.648283,-0.30918 c -0.127502,-0.0607 -0.253352,-0.12226 -0.377664,-0.18551 0.124312,0.0633 0.250162,0.12478 0.377664,0.18551 z m 21.767565,-0.19415 c 0.17351,-0.0958 0.34378,-0.19452 0.509977,-0.29521 -0.166197,0.10069 -0.336467,0.19942 -0.509977,0.29521 z m -23.108005,-0.55387 c -0.03232,-0.0192 -0.06435,-0.0384 -0.09641,-0.0578 0.03209,0.0194 0.06407,0.0386 0.09641,0.0578 z m 24.229694,-0.10904 c 0.101421,-0.0697 0.201208,-0.13984 0.299201,-0.21144 -0.09799,0.0716 -0.19778,0.14171 -0.299201,0.21144 z m 1.00533,-0.73139 c 0.0074,-0.006 0.01466,-0.0128 0.02192,-0.0193 9.08e-4,9.1e-4 3.4e-4,9.1e-4 0.0018,0.002 -0.008,0.006 -0.01593,0.0115 -0.02392,0.0173 z"
       style="opacity:1;vector-effect:none;fill:#ac4857;fill-opacity:1;stroke:none;stroke-width:0;stroke-linecap:round;stroke-linejoin:round;stroke-miterlimit:4;stroke-dasharray:none;stroke-dashoffset:0;stroke-opacity:1;paint-order:markers fill stroke"
       inkscape:connector-curvature="0" /><path
       style="color:#000000;font-style:normal;font-variant:normal;font-weight:normal;font-stretch:normal;font-size:medium;line-height:normal;font-family:sans-serif;font-variant-ligatures:normal;font-variant-position:normal;font-variant-caps:normal;font-variant-numeric:normal;font-variant-alternates:normal;font-feature-settings:normal;text-indent:0;text-align:start;text-decoration:none;text-decoration-line:none;text-decoration-style:solid;text-decoration-color:#000000;letter-spacing:normal;word-spacing:normal;text-transform:none;writing-mode:lr-tb;direction:ltr;text-orientation:mixed;dominant-baseline:auto;baseline-shift:baseline;text-anchor:start;white-space:normal;shape-padding:0;clip-rule:nonzero;display:inline;overflow:visible;visibility:visible;opacity:1;isolation:auto;mix-blend-mode:normal;color-interpolation:sRGB;color-interpolation-filters:linearRGB;solid-color:#000000;solid-opacity:1;vector-effect:none;fill:#333333;fill-opacity:1;fill-rule:nonzero;stroke:none;stroke-width:0.75;stroke-linecap:round;stroke-linejoin:round;stroke-miterlimit:4;stroke-dasharray:none;stroke-dashoffset:0;stroke-opacity:1;paint-order:markers fill stroke;color-rendering:auto;image-rendering:auto;shape-rendering:auto;text-rendering:auto;enable-background:accumulate"
       d="m 31.516636,-667.59539 c -1.476104,10e-6 -2.775566,0.0878 -3.351105,0.24645 -3.652867,0.69868 -7.779805,3.826 -11.20493,8.43805 -2.946666,3.97909 -5.091771,8.69329 -5.953089,13.08794 l -9.08e-4,0.002 a 0.17023194,0.17023194 0 0 0 -0.0027,0.008 c -1.95e-4,9.1e-4 1.95e-4,0.002 0,0.003 -0.561188,2.39703 -0.852592,4.97005 -0.856394,7.57102 a 0.17023194,0.17023194 0 0 0 0,9.1e-4 c 0.0029,6.7436 1.918684,13.00839 5.109994,16.60305 0.0011,10e-4 0.0024,0.003 0.0035,0.005 0.0015,0.002 0.003,0.004 0.0044,0.005 3.218311,4.22047 8.752323,6.76433 14.69433,6.77047 a 0.17023194,0.17023194 0 0 0 0.0018,0 c 0.519469,-0.004 1.03798,-0.0273 1.554984,-0.07 0.517158,0.0428 1.036254,0.0662 1.555873,0.07 a 0.17023194,0.17023194 0 0 0 9.08e-4,0 c 5.941553,-0.006 11.475213,-2.55045 14.693446,-6.77047 3.196182,-3.59318 5.115117,-9.86349 5.117972,-16.6128 a 0.17023194,0.17023194 0 0 0 0,-9.1e-4 c -0.0036,-2.59443 -0.294435,-5.16053 -0.852845,-7.5524 -1.95e-4,-9.1e-4 1.95e-4,-0.002 0,-0.003 a 0.17023194,0.17023194 0 0 0 -0.0018,-0.016 c -0.859722,-4.39816 -3.007212,-9.11754 -5.956637,-13.10035 -3.507894,-4.72786 -7.748483,-7.89403 -11.459363,-8.49478 -1.86e-4,-4e-5 -9.08e-4,3e-5 -9.08e-4,0 -0.655364,-0.11985 -1.824223,-0.18957 -3.096672,-0.18972 z m 0,0.34043 c 1.260071,1.5e-4 2.43001,0.0725 3.036389,0.18351 a 0.17023194,0.17023194 0 0 0 0.0036,9.1e-4 c 3.564409,0.5756 7.769249,3.68078 11.243049,8.36269 2.918469,3.94101 5.045751,8.62016 5.894579,12.95673 a 0.17023194,0.17023194 0 0 0 0.0027,0.016 c 0.555178,2.37046 0.843762,4.91973 0.847525,7.49655 -0.0027,6.68458 -1.921163,12.89053 -5.03109,16.38673 a 0.17023194,0.17023194 0 0 0 -0.0089,0.01 c -3.142666,4.12855 -8.581142,6.63987 -14.430149,6.64636 -0.51576,-0.004 -1.031093,-0.0264 -1.544344,-0.0692 a 0.17023194,0.17023194 0 0 0 -0.02746,0 c -0.512519,0.0427 -1.027544,0.0653 -1.542574,0.0692 -5.849578,-0.006 -11.288964,-2.51744 -14.431918,-6.64636 a 0.17023194,0.17023194 0 0 0 -0.008,-0.01 c -3.109933,-3.4962 -5.029147,-9.70214 -5.031979,-16.38673 0.0038,-2.574 0.291765,-5.12032 0.845756,-7.48857 l 9.07e-4,-0.004 a 0.17023194,0.17023194 0 0 0 0,-0.002 c 2.07e-4,-9e-4 6.81e-4,-0.002 9.08e-4,-0.003 a 0.17023194,0.17023194 0 0 0 0.0027,-0.01 c 0.848017,-4.33829 2.975618,-9.02006 5.895465,-12.96293 3.393741,-4.5698 7.489389,-7.64181 11.005457,-8.31039 a 0.17023194,0.17023194 0 0 0 0.0133,-0.003 c 0.470025,-0.13001 1.801309,-0.23404 3.264223,-0.23405 z"
       id="path5451"
       inkscape:connector-curvature="0" /><path
       inkscape:connector-curvature="0"
       style="opacity:1;vector-effect:none;fill:#ce5469;fill-opacity:1;stroke:none;stroke-width:0.75;stroke-linecap:round;stroke-linejoin:round;stroke-miterlimit:4;stroke-dasharray:none;stroke-dashoffset:0;stroke-opacity:1;paint-order:markers fill stroke"
       d="m 31.085207,-560.18276 a 2.1461981,2.1461981 0 0 1 -2.145639,-2.14631 l -0.946821,-10.96755 c 0.988231,0.45343 2.024686,0.69482 3.09246,0.69482 1.067969,0 2.104069,-0.24124 3.09246,-0.69482 l -0.946822,10.96755 a 2.1461981,2.1461981 0 0 1 -2.145638,2.14631 z"
       id="path5453" /><path
       inkscape:connector-curvature="0"
       style="opacity:1;vector-effect:none;fill:#cf5569;fill-opacity:1;stroke:none;stroke-width:0.75;stroke-linecap:round;stroke-linejoin:round;stroke-miterlimit:4;stroke-dasharray:none;stroke-dashoffset:0;stroke-opacity:1;paint-order:markers fill stroke"
       d="m 57.315234,-602.67989 a 26.274656,21.071754 0 0 0 -26.274656,-21.07175 26.274656,21.071754 0 0 0 -26.2746557,21.07175 26.274656,21.071754 0 0 0 26.2746557,21.07176 26.274656,21.071754 0 0 0 26.274656,-21.07176 z"
       id="ellipse5455" /><path
       id="path5457"
       d="m 31.040697,-586.78047 a 22.826259,22.364902 0 0 1 -22.8260884,-22.36531 22.826259,22.364902 0 0 1 0.5272663,-4.65431 26.274656,21.071754 0 0 1 22.2988221,-9.9516 26.274656,21.071754 0 0 1 22.334725,10.02341 22.826259,22.364902 0 0 1 0.491362,4.5825 22.826259,22.364902 0 0 1 -22.826087,22.36531 z"
       style="opacity:1;vector-effect:none;fill:#a84656;fill-opacity:1;stroke:none;stroke-width:2.83464575;stroke-linecap:round;stroke-linejoin:round;stroke-miterlimit:4;stroke-dasharray:none;stroke-dashoffset:0;stroke-opacity:1;paint-order:markers fill stroke"
       inkscape:connector-curvature="0" /><path
       inkscape:connector-curvature="0"
       style="opacity:1;vector-effect:none;fill:#f9ce6f;fill-opacity:1;stroke:none;stroke-width:0.75000012;stroke-linecap:round;stroke-linejoin:round;stroke-miterlimit:4;stroke-dasharray:none;stroke-dashoffset:0;stroke-opacity:1;paint-order:markers fill stroke"
       d="m 16.360573,-600.03344 a 9.2075573,4.3048793 82.286058 0 0 -5.605788,-8.19708 9.2075573,4.3048793 82.286058 0 0 -2.8330677,9.99895 9.2075573,4.3048793 82.286058 0 0 5.6057877,8.19708 9.2075573,4.3048793 82.286058 0 0 2.833068,-9.99895 z"
       id="ellipse5459" /><path
       id="path5461"
       d="m 15.820419,-592.50994 a 22.826259,22.364902 0 0 1 -7.3325365,-13.30934 9.2075568,4.3048793 82.286058 0 1 2.2666505,-2.41092 9.2075568,4.3048793 82.286058 0 1 5.605789,8.19691 9.2075568,4.3048793 82.286058 0 1 -0.539903,7.52335 z"
       style="opacity:1;vector-effect:none;fill:#bc9b58;fill-opacity:1;stroke:none;stroke-width:2.83464575;stroke-linecap:round;stroke-linejoin:round;stroke-miterlimit:4;stroke-dasharray:none;stroke-dashoffset:0;stroke-opacity:1;paint-order:markers fill stroke"
       inkscape:connector-curvature="0" /><path
       id="path5463"
       d="m 15.820419,-592.50994 a 22.826259,22.364902 0 0 1 -7.3325365,-13.30934 9.2075568,4.3048793 82.286058 0 1 0.265962,-0.58111 9.2075568,4.3048793 82.286058 0 1 0.00731,-0.0153 9.2075568,4.3048793 82.286058 0 1 0.2845811,-0.48405 9.2075568,4.3048793 82.286058 0 1 0.03259,-0.0485 9.2075568,4.3048793 82.286058 0 1 0.2845817,-0.37501 9.2075568,4.3048793 82.286058 0 1 0.067818,-0.0765 9.2075568,4.3048793 82.286058 0 1 0.2746043,-0.27128 9.2075568,4.3048793 82.286058 0 1 0.1083792,-0.0904 9.2075568,4.3048793 82.286058 0 1 0.2586492,-0.18152 9.2075568,4.3048793 82.286058 0 1 0.14428,-0.0818 9.2075568,4.3048793 82.286058 0 1 0.243357,-0.10971 9.2075568,4.3048793 82.286058 0 1 0.294549,-0.0957 9.2075568,4.3048793 82.286058 0 1 0.367691,-0.0379 9.2075568,4.3048793 82.286058 0 1 0.207453,0.009 9.2075568,4.3048793 82.286058 0 1 0.232051,0.0246 9.2075568,4.3048793 82.286058 0 1 0.204126,0.0519 9.2075568,4.3048793 82.286058 0 1 0.237366,0.0738 9.2075568,4.3048793 82.286058 0 1 0.204789,0.0924 9.2075568,4.3048793 82.286058 0 1 0.238038,0.12167 9.2075568,4.3048793 82.286058 0 1 0.214761,0.14096 9.2075568,4.3048793 82.286058 0 1 0.221411,0.15825 9.2075568,4.3048793 82.286058 0 1 0.214103,0.18484 9.2075568,4.3048793 82.286058 0 1 0.224738,0.20745 9.2075568,4.3048793 82.286058 0 1 0.19016,0.20413 9.2075568,4.3048793 82.286058 0 1 0.234043,0.26662 9.2075568,4.3048793 82.286058 0 1 0.182184,0.23804 9.2075568,4.3048793 82.286058 0 1 0.218752,0.30053 9.2075568,4.3048793 82.286058 0 1 0.182184,0.28325 9.2075568,4.3048793 82.286058 0 1 0.205457,0.33378 9.2075568,4.3048793 82.286058 0 1 0.162235,0.29721 9.2075568,4.3048793 82.286058 0 1 0.202129,0.38897 9.2075568,4.3048793 82.286058 0 1 0.14761,0.31716 9.2075568,4.3048793 82.286058 0 1 0.18085,0.40759 9.2075568,4.3048793 82.286058 0 1 0.148277,0.37633 9.2075568,4.3048793 82.286058 0 1 0.154256,0.40958 9.2075568,4.3048793 82.286058 0 1 0.128992,0.38631 9.2075568,4.3048793 82.286058 0 1 0.14229,0.44747 9.2075568,4.3048793 82.286058 0 1 0.106382,0.38366 9.2075568,4.3048793 82.286058 0 1 0.128324,0.4887 9.2075568,4.3048793 82.286058 0 1 0.08577,0.38098 9.2075568,4.3048793 82.286058 0 1 0.105057,0.49669 9.2075568,4.3048793 82.286058 0 1 0.134306,0.76264 9.2075568,4.3048793 82.286058 0 1 0.103727,0.81251 9.2075568,4.3048793 82.286058 0 1 0.03191,0.34109 9.2075568,4.3048793 82.286058 0 1 0.04654,0.57248 9.2075568,4.3048793 82.286058 0 1 0.01466,0.31383 9.2075568,4.3048793 82.286058 0 1 0.02061,0.61837 9.2075568,4.3048793 82.286058 0 1 -4.43e-4,0.2214 9.2075568,4.3048793 82.286058 0 1 -0.01198,0.68951 9.2075568,4.3048793 82.286058 0 1 -0.0073,0.14229 9.2075568,4.3048793 82.286058 0 1 -0.05053,0.72807 9.2075568,4.3048793 82.286058 0 1 -0.01067,0.0997 9.2075568,4.3048793 82.286058 0 1 -0.09242,0.73605 9.2075568,4.3048793 82.286058 0 1 -0.0093,0.0559 9.2075568,4.3048793 82.286058 0 1 -0.136303,0.73072 9.2075568,4.3048793 82.286058 0 1 -0.0066,0.0273 9.2075568,4.3048793 82.286058 0 1 -0.182179,0.70746 9.2075568,4.3048793 82.286058 0 1 -0.24934,0.72607 9.2075568,4.3048793 82.286058 0 1 0,3.5e-4 z"
       style="opacity:1;vector-effect:none;fill:#bc9b58;fill-opacity:1;stroke:none;stroke-width:2.83464575;stroke-linecap:round;stroke-linejoin:round;stroke-miterlimit:4;stroke-dasharray:none;stroke-dashoffset:0;stroke-opacity:1;paint-order:markers fill stroke"
       inkscape:connector-curvature="0" /><path
       style="color:#000000;font-style:normal;font-variant:normal;font-weight:normal;font-stretch:normal;font-size:medium;line-height:normal;font-family:sans-serif;font-variant-ligatures:normal;font-variant-position:normal;font-variant-caps:normal;font-variant-numeric:normal;font-variant-alternates:normal;font-feature-settings:normal;text-indent:0;text-align:start;text-decoration:none;text-decoration-line:none;text-decoration-style:solid;text-decoration-color:#000000;letter-spacing:normal;word-spacing:normal;text-transform:none;writing-mode:lr-tb;direction:ltr;text-orientation:mixed;dominant-baseline:auto;baseline-shift:baseline;text-anchor:start;white-space:normal;shape-padding:0;clip-rule:nonzero;display:inline;overflow:visible;visibility:visible;opacity:1;isolation:auto;mix-blend-mode:normal;color-interpolation:sRGB;color-interpolation-filters:linearRGB;solid-color:#000000;solid-opacity:1;vector-effect:none;fill:#333333;fill-opacity:1;fill-rule:nonzero;stroke:none;stroke-width:0.89999998;stroke-linecap:round;stroke-linejoin:round;stroke-miterlimit:4;stroke-dasharray:none;stroke-dashoffset:0;stroke-opacity:1;paint-order:markers fill stroke;color-rendering:auto;image-rendering:auto;shape-rendering:auto;text-rendering:auto;enable-background:accumulate"
       d="m 11.270813,-605.38628 c -0.425191,0.0697 -0.793862,0.34003 -1.091326,0.73494 -0.2974631,0.39492 -0.5331054,0.9191 -0.7092284,1.53903 -0.3522455,1.23985 -0.4631339,2.86765 -0.2615277,4.61176 0.2016057,1.74411 0.6773473,3.27624 1.2996621,4.35998 0.311157,0.54188 0.658895,0.97295 1.03902,1.26066 0.380124,0.28771 0.804434,0.43135 1.229625,0.3617 0.425191,-0.0696 0.792977,-0.34002 1.090439,-0.73493 0.297463,-0.39492 0.533107,-0.9191 0.709229,-1.53903 0.352245,-1.23985 0.46402,-2.86765 0.262415,-4.61176 -0.201606,-1.74411 -0.678235,-3.27535 -1.300548,-4.3591 -0.311157,-0.54187 -0.65801,-0.97294 -1.038134,-1.26065 -0.380124,-0.28771 -0.804434,-0.43224 -1.229626,-0.3626 z m 0.0656,0.40338 c 0.296257,-0.0485 0.599647,0.0439 0.917565,0.28458 0.317917,0.24063 0.638866,0.6298 0.930863,1.13831 0.583994,1.01701 1.05198,2.50518 1.248242,4.20307 0.196263,1.69788 0.08348,3.28239 -0.249116,4.45307 -0.166297,0.58534 -0.387978,1.06693 -0.642739,1.40516 -0.25476,0.33822 -0.533541,0.5286 -0.829798,0.57713 -0.296256,0.0485 -0.599647,-0.0439 -0.917564,-0.28458 -0.317918,-0.24062 -0.638866,-0.6298 -0.930863,-1.13831 -0.583995,-1.01701 -1.0528664,-2.50518 -1.2491292,-4.20307 -0.1962633,-1.69788 -0.08259,-3.28239 0.250003,-4.45307 0.1662962,-0.58534 0.3879772,-1.06605 0.6427382,-1.40427 0.254762,-0.33822 0.533541,-0.5295 0.829798,-0.57802 z"
       id="ellipse5465"
       inkscape:connector-curvature="0" /><path
       inkscape:connector-curvature="0"
       style="opacity:1;vector-effect:none;fill:#333333;fill-opacity:1;stroke:none;stroke-width:0.74999988;stroke-linecap:round;stroke-linejoin:round;stroke-miterlimit:4;stroke-dasharray:none;stroke-dashoffset:0;stroke-opacity:1;paint-order:markers fill stroke"
       d="m 13.097812,-598.98735 a 3.1760309,1.1815436 85.196127 0 0 -1.473675,-2.95259 3.1760309,1.1815436 85.196127 0 0 -0.861553,3.3667 3.1760309,1.1815436 85.196127 0 0 1.473675,2.95258 3.1760309,1.1815436 85.196127 0 0 0.861553,-3.36669 z"
       id="ellipse5467" /><path
       style="color:#000000;font-style:normal;font-variant:normal;font-weight:normal;font-stretch:normal;font-size:medium;line-height:normal;font-family:sans-serif;font-variant-ligatures:normal;font-variant-position:normal;font-variant-caps:normal;font-variant-numeric:normal;font-variant-alternates:normal;font-feature-settings:normal;text-indent:0;text-align:start;text-decoration:none;text-decoration-line:none;text-decoration-style:solid;text-decoration-color:#000000;letter-spacing:normal;word-spacing:normal;text-transform:none;writing-mode:lr-tb;direction:ltr;text-orientation:mixed;dominant-baseline:auto;baseline-shift:baseline;text-anchor:start;white-space:normal;shape-padding:0;clip-rule:nonzero;display:inline;overflow:visible;visibility:visible;opacity:1;isolation:auto;mix-blend-mode:normal;color-interpolation:sRGB;color-interpolation-filters:linearRGB;solid-color:#000000;solid-opacity:1;vector-effect:none;fill:#333333;fill-opacity:1;fill-rule:nonzero;stroke:none;stroke-width:0.75;stroke-linecap:round;stroke-linejoin:round;stroke-miterlimit:4;stroke-dasharray:none;stroke-dashoffset:0;stroke-opacity:1;paint-order:markers fill stroke;color-rendering:auto;image-rendering:auto;shape-rendering:auto;text-rendering:auto;enable-background:accumulate"
       d="m 31.040565,-623.92197 c -14.584867,0 -26.4444836,9.48997 -26.4444813,21.24229 9e-7,11.75231 11.8596163,21.2414 26.4444813,21.2414 14.584867,0 26.444485,-9.48909 26.444485,-21.2414 0,-11.75232 -11.859613,-21.24229 -26.444485,-21.24229 z m 0,0.34043 c 14.43732,0 26.104055,9.37895 26.104055,20.90186 0,11.5229 -11.666739,20.90097 -26.104055,20.90097 -14.437315,0 -26.104051,-9.37807 -26.1040515,-20.90097 -2.2e-6,-11.52291 11.6667345,-20.90186 26.1040515,-20.90186 z"
       id="ellipse5469"
       inkscape:connector-curvature="0" /><path
       id="path5471"
       d="m 31.084898,-572.60182 c -6.822636,-3e-5 -12.353096,-9.84652 -12.353214,-21.99228 l 0.01729,-1.50336 c -1.4e-5,-5.02329 5.738167,-9.19287 12.335934,-9.19294 6.597761,7e-5 12.335937,4.16965 12.335924,9.19294 l 0.01729,1.50336 c -1.14e-4,12.14572 -5.530578,21.99225 -12.353218,21.99228 z"
       style="opacity:1;vector-effect:none;fill:#4e9dbe;fill-opacity:1;stroke:none;stroke-width:0.75;stroke-linecap:round;stroke-linejoin:round;stroke-miterlimit:4;stroke-dasharray:none;stroke-dashoffset:0;stroke-opacity:1;paint-order:markers fill stroke"
       inkscape:connector-curvature="0" /><path
       id="path5473"
       d="m 31.084585,-576.25906 c -5.251475,-4e-5 -9.508015,-10.15323 -9.508106,-22.67648 l 0.01325,-1.54989 c 0,-0.51203 0.0443,-1.01514 0.126999,-1.50667 2.298378,-2.00832 5.699081,-3.29853 9.367789,-3.29857 3.668331,4e-5 7.069448,1.28994 9.36783,3.2979 0.08277,0.49175 0.127661,0.99508 0.127661,1.50734 l 0.0133,1.54989 c -2.13e-4,12.52321 -4.257397,22.67644 -9.508873,22.67648 z"
       style="opacity:1;vector-effect:none;fill:#4b839d;fill-opacity:1;stroke:none;stroke-width:2.83464575;stroke-linecap:round;stroke-linejoin:round;stroke-miterlimit:4;stroke-dasharray:none;stroke-dashoffset:0;stroke-opacity:1;paint-order:markers fill stroke"
       inkscape:connector-curvature="0" /><path
       style="color:#000000;font-style:normal;font-variant:normal;font-weight:normal;font-stretch:normal;font-size:medium;line-height:normal;font-family:sans-serif;font-variant-ligatures:normal;font-variant-position:normal;font-variant-caps:normal;font-variant-numeric:normal;font-variant-alternates:normal;font-feature-settings:normal;text-indent:0;text-align:start;text-decoration:none;text-decoration-line:none;text-decoration-style:solid;text-decoration-color:#000000;letter-spacing:normal;word-spacing:normal;text-transform:none;writing-mode:lr-tb;direction:ltr;text-orientation:mixed;dominant-baseline:auto;baseline-shift:baseline;text-anchor:start;white-space:normal;shape-padding:0;clip-rule:nonzero;display:inline;overflow:visible;visibility:visible;opacity:1;isolation:auto;mix-blend-mode:normal;color-interpolation:sRGB;color-interpolation-filters:linearRGB;solid-color:#000000;solid-opacity:1;vector-effect:none;fill:#333333;fill-opacity:1;fill-rule:nonzero;stroke:none;stroke-width:0.75;stroke-linecap:round;stroke-linejoin:round;stroke-miterlimit:4;stroke-dasharray:none;stroke-dashoffset:0;stroke-opacity:1;paint-order:markers fill stroke;color-rendering:auto;image-rendering:auto;shape-rendering:auto;text-rendering:auto;enable-background:accumulate"
       d="m 31.084893,-605.46074 c -3.334741,3e-5 -6.451435,1.05227 -8.743018,2.74648 -2.291584,1.69421 -3.763352,4.04065 -3.763345,6.61711 l -0.01684,1.50091 a 0.17023194,0.17023194 0 0 0 0,0.002 c 5.9e-5,6.09872 1.386553,11.62288 3.640117,15.63495 2.253564,4.01208 5.389885,6.52755 8.88309,6.52757 3.493205,-2e-5 6.629526,-2.51637 8.88309,-6.52845 2.253564,-4.01208 3.640062,-9.53537 3.640116,-15.63407 a 0.17023194,0.17023194 0 0 0 0,-0.002 l -0.01684,-1.50091 c 9e-6,-2.57646 -1.47176,-4.9229 -3.763343,-6.61711 -2.291583,-1.69421 -5.408282,-2.74645 -8.743019,-2.74648 z m 0,0.34043 c 3.263025,3e-5 6.313943,1.03269 8.54089,2.67911 2.226942,1.64642 3.625051,3.89722 3.625042,6.34405 a 0.17023194,0.17023194 0 0 0 0,0.002 l 0.01684,1.5009 c -5.4e-5,6.04703 -1.378432,11.51978 -3.595788,15.4674 -2.217355,3.94761 -5.257553,6.35467 -8.586988,6.35469 -3.329431,-2e-5 -6.369633,-2.40708 -8.586988,-6.35469 -2.217022,-3.94703 -3.595317,-9.41877 -3.59579,-15.46474 v -0.003 l 0.01684,-1.50091 a 0.17023194,0.17023194 0 0 0 0,-0.002 c -7e-6,-2.44683 1.398101,-4.69763 3.625046,-6.34406 2.226945,-1.64642 5.277863,-2.67908 8.540888,-2.67911 z"
       id="path5475"
       inkscape:connector-curvature="0" /><path
       style="color:#000000;font-style:normal;font-variant:normal;font-weight:normal;font-stretch:normal;font-size:medium;line-height:normal;font-family:sans-serif;font-variant-ligatures:normal;font-variant-position:normal;font-variant-caps:normal;font-variant-numeric:normal;font-variant-alternates:normal;font-feature-settings:normal;text-indent:0;text-align:start;text-decoration:none;text-decoration-line:none;text-decoration-style:solid;text-decoration-color:#000000;letter-spacing:normal;word-spacing:normal;text-transform:none;writing-mode:lr-tb;direction:ltr;text-orientation:mixed;dominant-baseline:auto;baseline-shift:baseline;text-anchor:start;white-space:normal;shape-padding:0;clip-rule:nonzero;display:inline;overflow:visible;visibility:visible;opacity:1;isolation:auto;mix-blend-mode:normal;color-interpolation:sRGB;color-interpolation-filters:linearRGB;solid-color:#000000;solid-opacity:1;vector-effect:none;fill:#333333;fill-opacity:1;fill-rule:nonzero;stroke:none;stroke-width:0.75000012;stroke-linecap:round;stroke-linejoin:round;stroke-miterlimit:4;stroke-dasharray:none;stroke-dashoffset:0;stroke-opacity:1;paint-order:markers fill stroke;color-rendering:auto;image-rendering:auto;shape-rendering:auto;text-rendering:auto;enable-background:accumulate"
       d="m 10.719388,-608.39695 c -1.2609418,0.26923 -2.1843614,1.582 -2.7057079,3.42203 -0.5213465,1.84002 -0.6467168,4.23507 -0.2606417,6.7687 0.386076,2.53363 1.210617,4.72822 2.2447094,6.24033 0.5170462,0.75605 1.0868932,1.3422 1.6897372,1.7119 0.602845,0.3697 1.24544,0.52026 1.875911,0.38564 1.260941,-0.26923 2.184361,-1.58111 2.705707,-3.42114 0.521347,-1.84003 0.645831,-4.23596 0.259756,-6.76959 -0.386076,-2.53363 -1.209731,-4.72734 -2.243823,-6.23944 -0.517046,-0.75605 -1.086893,-1.34309 -1.689738,-1.71279 -0.602844,-0.3697 -1.245439,-0.52026 -1.87591,-0.38564 z m 0.07092,0.33334 c 0.534691,-0.11417 1.07972,0.007 1.626794,0.3422 0.547073,0.33549 1.089497,0.88705 1.586899,1.61438 0.994804,1.45466 1.808381,3.6083 2.187971,6.09937 0.37959,2.49107 0.253133,4.8462 -0.25089,6.62509 -0.504022,1.77888 -1.380115,2.95344 -2.449499,3.18177 -0.534691,0.11417 -1.07972,-0.008 -1.626793,-0.34309 -0.547074,-0.3355 -1.088612,-0.88706 -1.586014,-1.61438 -0.9948036,-1.45465 -1.8092665,-3.6083 -2.1888567,-6.09937 -0.3795901,-2.49106 -0.2531332,-4.8462 0.2508895,-6.62508 0.5040227,-1.77888 1.3801153,-2.95256 2.4494992,-3.18089 z"
       id="ellipse5479"
       inkscape:connector-curvature="0" /><path
       inkscape:connector-curvature="0"
       style="opacity:1;vector-effect:none;fill:#f9ce6f;fill-opacity:1;stroke:none;stroke-width:0.75000012;stroke-linecap:round;stroke-linejoin:round;stroke-miterlimit:4;stroke-dasharray:none;stroke-dashoffset:0;stroke-opacity:1;paint-order:markers fill stroke"
       d="m 45.809223,-600.03344 a 4.3048793,9.2075573 7.7139408 0 1 5.605786,-8.19708 4.3048793,9.2075573 7.7139408 0 1 2.83307,9.99894 4.3048793,9.2075573 7.7139408 0 1 -5.605789,8.19709 4.3048793,9.2075573 7.7139408 0 1 -2.833067,-9.99895 z"
       id="ellipse5481" /><path
       inkscape:connector-curvature="0"
       style="opacity:1;vector-effect:none;fill:#bc9b58;fill-opacity:1;stroke:none;stroke-width:2.83464575;stroke-linecap:round;stroke-linejoin:round;stroke-miterlimit:4;stroke-dasharray:none;stroke-dashoffset:0;stroke-opacity:1;paint-order:markers fill stroke"
       d="m 46.349363,-592.50992 a 22.826259,22.364902 0 0 0 7.332545,-13.30935 4.3048793,9.2075568 7.713941 0 0 -2.266654,-2.41093 4.3048793,9.2075568 7.713941 0 0 -5.60579,8.19691 4.3048793,9.2075568 7.713941 0 0 0.539899,7.52337 z"
       id="path5483" /><path
       inkscape:connector-curvature="0"
       style="opacity:1;vector-effect:none;fill:#bc9b58;fill-opacity:1;stroke:none;stroke-width:2.83464575;stroke-linecap:round;stroke-linejoin:round;stroke-miterlimit:4;stroke-dasharray:none;stroke-dashoffset:0;stroke-opacity:1;paint-order:markers fill stroke"
       d="m 46.349363,-592.50992 a 22.826259,22.364902 0 0 0 7.332545,-13.30935 4.3048793,9.2075568 7.713941 0 0 -0.265962,-0.58112 4.3048793,9.2075568 7.713941 0 0 -0.0073,-0.0153 4.3048793,9.2075568 7.713941 0 0 -0.284572,-0.48405 4.3048793,9.2075568 7.713941 0 0 -0.03259,-0.0485 4.3048793,9.2075568 7.713941 0 0 -0.284586,-0.375 4.3048793,9.2075568 7.713941 0 0 -0.06781,-0.0765 4.3048793,9.2075568 7.713941 0 0 -0.274605,-0.27128 4.3048793,9.2075568 7.713941 0 0 -0.108379,-0.0904 4.3048793,9.2075568 7.713941 0 0 -0.258645,-0.18151 4.3048793,9.2075568 7.713941 0 0 -0.144288,-0.0818 4.3048793,9.2075568 7.713941 0 0 -0.243353,-0.10971 4.3048793,9.2075568 7.713941 0 0 -0.294553,-0.0957 4.3048793,9.2075568 7.713941 0 0 -0.367692,-0.0379 4.3048793,9.2075568 7.713941 0 0 -0.207444,0.009 4.3048793,9.2075568 7.713941 0 0 -0.23205,0.0246 4.3048793,9.2075568 7.713941 0 0 -0.204122,0.0519 4.3048793,9.2075568 7.713941 0 0 -0.237375,0.0738 4.3048793,9.2075568 7.713941 0 0 -0.204789,0.0924 4.3048793,9.2075568 7.713941 0 0 -0.238042,0.12167 4.3048793,9.2075568 7.713941 0 0 -0.214757,0.14096 4.3048793,9.2075568 7.713941 0 0 -0.221416,0.15825 4.3048793,9.2075568 7.713941 0 0 -0.214103,0.18484 4.3048793,9.2075568 7.713941 0 0 -0.224724,0.20745 4.3048793,9.2075568 7.713941 0 0 -0.190173,0.20413 4.3048793,9.2075568 7.713941 0 0 -0.234044,0.26662 4.3048793,9.2075568 7.713941 0 0 -0.182184,0.23804 4.3048793,9.2075568 7.713941 0 0 -0.218756,0.30054 4.3048793,9.2075568 7.713941 0 0 -0.182184,0.28324 4.3048793,9.2075568 7.713941 0 0 -0.205456,0.33378 4.3048793,9.2075568 7.713941 0 0 -0.162236,0.29721 4.3048793,9.2075568 7.713941 0 0 -0.202124,0.38897 4.3048793,9.2075568 7.713941 0 0 -0.147611,0.31716 4.3048793,9.2075568 7.713941 0 0 -0.180859,0.40758 4.3048793,9.2075568 7.713941 0 0 -0.148268,0.37634 4.3048793,9.2075568 7.713941 0 0 -0.154256,0.40958 4.3048793,9.2075568 7.713941 0 0 -0.128995,0.38631 4.3048793,9.2075568 7.713941 0 0 -0.142286,0.44748 4.3048793,9.2075568 7.713941 0 0 -0.106392,0.38365 4.3048793,9.2075568 7.713941 0 0 -0.128328,0.4887 4.3048793,9.2075568 7.713941 0 0 -0.08576,0.38099 4.3048793,9.2075568 7.713941 0 0 -0.105057,0.49668 4.3048793,9.2075568 7.713941 0 0 -0.134306,0.76264 4.3048793,9.2075568 7.713941 0 0 -0.103736,0.81251 4.3048793,9.2075568 7.713941 0 0 -0.03191,0.34109 4.3048793,9.2075568 7.713941 0 0 -0.04654,0.57249 4.3048793,9.2075568 7.713941 0 0 -0.01462,0.31383 4.3048793,9.2075568 7.713941 0 0 -0.02061,0.61836 4.3048793,9.2075568 7.713941 0 0 9.08e-4,0.22141 4.3048793,9.2075568 7.713941 0 0 0.01198,0.68951 4.3048793,9.2075568 7.713941 0 0 0.0073,0.14229 4.3048793,9.2075568 7.713941 0 0 0.05053,0.72807 4.3048793,9.2075568 7.713941 0 0 0.01062,0.0997 4.3048793,9.2075568 7.713941 0 0 0.09242,0.73605 4.3048793,9.2075568 7.713941 0 0 0.0093,0.0559 4.3048793,9.2075568 7.713941 0 0 0.136309,0.73072 4.3048793,9.2075568 7.713941 0 0 0.0066,0.0273 4.3048793,9.2075568 7.713941 0 0 0.182184,0.70746 4.3048793,9.2075568 7.713941 0 0 0.24934,0.72607 4.3048793,9.2075568 7.713941 0 0 0,3.5e-4 z"
       id="path5485" /><path
       style="color:#000000;font-style:normal;font-variant:normal;font-weight:normal;font-stretch:normal;font-size:medium;line-height:normal;font-family:sans-serif;font-variant-ligatures:normal;font-variant-position:normal;font-variant-caps:normal;font-variant-numeric:normal;font-variant-alternates:normal;font-feature-settings:normal;text-indent:0;text-align:start;text-decoration:none;text-decoration-line:none;text-decoration-style:solid;text-decoration-color:#000000;letter-spacing:normal;word-spacing:normal;text-transform:none;writing-mode:lr-tb;direction:ltr;text-orientation:mixed;dominant-baseline:auto;baseline-shift:baseline;text-anchor:start;white-space:normal;shape-padding:0;clip-rule:nonzero;display:inline;overflow:visible;visibility:visible;opacity:1;isolation:auto;mix-blend-mode:normal;color-interpolation:sRGB;color-interpolation-filters:linearRGB;solid-color:#000000;solid-opacity:1;vector-effect:none;fill:#333333;fill-opacity:1;fill-rule:nonzero;stroke:none;stroke-width:0.89999998;stroke-linecap:round;stroke-linejoin:round;stroke-miterlimit:4;stroke-dasharray:none;stroke-dashoffset:0;stroke-opacity:1;paint-order:markers fill stroke;color-rendering:auto;image-rendering:auto;shape-rendering:auto;text-rendering:auto;enable-background:accumulate"
       d="m 50.898972,-605.38628 c -0.425188,-0.0696 -0.8495,0.0749 -1.229624,0.3626 -0.380124,0.28771 -0.726976,0.71878 -1.038134,1.26065 -0.622315,1.08375 -1.098944,2.61499 -1.300546,4.3591 -0.201607,1.74411 -0.08983,3.37191 0.262412,4.61176 0.176125,0.61993 0.411766,1.14411 0.709229,1.53903 0.297463,0.39491 0.665245,0.66529 1.090438,0.73493 0.425192,0.0696 0.849504,-0.074 1.229628,-0.3617 0.380124,-0.28772 0.727861,-0.71878 1.039019,-1.26066 0.622315,-1.08374 1.098058,-2.61587 1.299661,-4.35998 0.201607,-1.74411 0.09072,-3.37191 -0.261527,-4.61176 -0.176121,-0.61993 -0.411766,-1.14411 -0.709229,-1.53903 -0.297463,-0.39491 -0.666135,-0.66528 -1.091327,-0.73494 z m -0.0656,0.40338 c 0.296255,0.0485 0.57504,0.2398 0.8298,0.57802 0.254759,0.33822 0.476442,0.81894 0.642736,1.40427 0.332595,1.17068 0.446267,2.75519 0.250002,4.45307 -0.19626,1.69789 -0.665132,3.18606 -1.249128,4.20307 -0.291998,0.50851 -0.612946,0.89768 -0.930862,1.13831 -0.317916,0.24063 -0.621307,0.33311 -0.917563,0.28458 -0.29626,-0.0485 -0.57504,-0.23891 -0.8298,-0.57713 -0.254759,-0.33823 -0.476443,-0.81982 -0.64274,-1.40516 -0.332591,-1.17068 -0.445378,-2.75518 -0.249113,-4.45307 0.19626,-1.69789 0.664246,-3.18606 1.248242,-4.20307 0.291999,-0.50851 0.612942,-0.89768 0.930863,-1.13831 0.317916,-0.24063 0.621307,-0.33311 0.917563,-0.28458 z"
       id="ellipse5487"
       inkscape:connector-curvature="0" /><path
       inkscape:connector-curvature="0"
       style="opacity:1;vector-effect:none;fill:#333333;fill-opacity:1;stroke:none;stroke-width:0.74999988;stroke-linecap:round;stroke-linejoin:round;stroke-miterlimit:4;stroke-dasharray:none;stroke-dashoffset:0;stroke-opacity:1;paint-order:markers fill stroke"
       d="m 49.071957,-598.98737 a 1.1815436,3.1760309 4.803874 0 1 1.47368,-2.95258 1.1815436,3.1760309 4.803874 0 1 0.861556,3.3667 1.1815436,3.1760309 4.803874 0 1 -1.473676,2.95258 1.1815436,3.1760309 4.803874 0 1 -0.86156,-3.3667 z"
       id="ellipse5489" /><path
       style="color:#000000;font-style:normal;font-variant:normal;font-weight:normal;font-stretch:normal;font-size:medium;line-height:normal;font-family:sans-serif;font-variant-ligatures:normal;font-variant-position:normal;font-variant-caps:normal;font-variant-numeric:normal;font-variant-alternates:normal;font-feature-settings:normal;text-indent:0;text-align:start;text-decoration:none;text-decoration-line:none;text-decoration-style:solid;text-decoration-color:#000000;letter-spacing:normal;word-spacing:normal;text-transform:none;writing-mode:lr-tb;direction:ltr;text-orientation:mixed;dominant-baseline:auto;baseline-shift:baseline;text-anchor:start;white-space:normal;shape-padding:0;clip-rule:nonzero;display:inline;overflow:visible;visibility:visible;opacity:1;isolation:auto;mix-blend-mode:normal;color-interpolation:sRGB;color-interpolation-filters:linearRGB;solid-color:#000000;solid-opacity:1;vector-effect:none;fill:#333333;fill-opacity:1;fill-rule:nonzero;stroke:none;stroke-width:0.75000012;stroke-linecap:round;stroke-linejoin:round;stroke-miterlimit:4;stroke-dasharray:none;stroke-dashoffset:0;stroke-opacity:1;paint-order:markers fill stroke;color-rendering:auto;image-rendering:auto;shape-rendering:auto;text-rendering:auto;enable-background:accumulate"
       d="m 51.4504,-608.39695 c -0.630472,-0.13462 -1.273067,0.0159 -1.875914,0.38564 -0.602842,0.3697 -1.17269,0.95674 -1.689735,1.71279 -1.034094,1.5121 -1.857748,3.70582 -2.243822,6.23944 -0.386075,2.53363 -0.261591,4.92956 0.259757,6.76959 0.521343,1.84003 1.444766,3.15191 2.705704,3.42114 0.630472,0.13462 1.273067,-0.0159 1.875909,-0.38564 0.602847,-0.3697 1.172695,-0.95585 1.689739,-1.7119 1.034095,-1.51211 1.858634,-3.7067 2.244709,-6.24033 0.386079,-2.53363 0.260705,-4.92868 -0.260638,-6.7687 -0.521348,-1.84003 -1.444766,-3.1528 -2.705709,-3.42203 z m -0.07092,0.33245 c 1.069381,0.22833 1.945475,1.4029 2.449497,3.18178 0.504022,1.77888 0.630481,4.13402 0.250892,6.62508 -0.379593,2.49107 -1.194055,4.64471 -2.188859,6.09937 -0.4974,0.72733 -1.038938,1.27888 -1.586013,1.61438 -0.547075,0.3355 -1.092103,0.45726 -1.626791,0.34309 -1.069386,-0.22833 -1.94548,-1.40289 -2.449502,-3.18177 -0.504022,-1.77889 -0.630481,-4.13403 -0.250888,-6.62509 0.379589,-2.49107 1.193166,-4.64471 2.18797,-6.09937 0.4974,-0.72733 1.039827,-1.27888 1.586898,-1.61438 0.547075,-0.3355 1.092103,-0.45726 1.626796,-0.34309 z"
       id="ellipse5491"
       inkscape:connector-curvature="0" /><path
       style="color:#000000;font-style:normal;font-variant:normal;font-weight:normal;font-stretch:normal;font-size:medium;line-height:normal;font-family:sans-serif;font-variant-ligatures:normal;font-variant-position:normal;font-variant-caps:normal;font-variant-numeric:normal;font-variant-alternates:normal;font-feature-settings:normal;text-indent:0;text-align:start;text-decoration:none;text-decoration-line:none;text-decoration-style:solid;text-decoration-color:#000000;letter-spacing:normal;word-spacing:normal;text-transform:none;writing-mode:lr-tb;direction:ltr;text-orientation:mixed;dominant-baseline:auto;baseline-shift:baseline;text-anchor:start;white-space:normal;shape-padding:0;clip-rule:nonzero;display:inline;overflow:visible;visibility:visible;opacity:1;isolation:auto;mix-blend-mode:normal;color-interpolation:sRGB;color-interpolation-filters:linearRGB;solid-color:#000000;solid-opacity:1;vector-effect:none;fill:#333333;fill-opacity:1;fill-rule:nonzero;stroke:none;stroke-width:0.75;stroke-linecap:round;stroke-linejoin:round;stroke-miterlimit:4;stroke-dasharray:none;stroke-dashoffset:0;stroke-opacity:1;paint-order:markers fill stroke;color-rendering:auto;image-rendering:auto;shape-rendering:auto;text-rendering:auto;enable-background:accumulate"
       d="m 47.76773,-669.21864 c -1.329755,0.0484 -2.459805,0.86961 -3.211034,2.14187 -0.751765,1.27317 -1.138066,3.00123 -1.009765,4.91407 a 0.17023194,0.17023194 0 0 0 0,9.1e-4 c 0.01956,0.27344 0.0514,0.54504 0.09131,0.81472 a 0.17023194,0.17023194 0 0 0 0.04344,0.0913 c 0.73315,0.7912 1.442996,1.6437 2.118822,2.5479 h -9.08e-4 c 2.918464,3.941 5.045747,8.62016 5.894579,12.95673 a 0.17023194,0.17023194 0 0 0 0.0027,0.0151 c 0.555182,2.37045 0.843758,4.92061 0.847525,7.49743 -0.005,2.76277 -0.336707,5.49142 -0.972526,8.0001 a 0.17023194,0.17023194 0 0 0 0.06205,0.1782 c 0.490859,0.37055 1.100246,0.58918 1.754457,0.58955 a 0.17023194,0.17023194 0 0 0 0.07358,-0.0168 c 0.982703,-0.0172 1.927114,-0.35169 2.468116,-1.4291 a 0.17023194,0.17023194 0 0 0 9.08e-4,-0.003 c 1.514327,-3.12818 2.567385,-8.14319 2.890108,-13.69344 0.368531,-6.45942 -0.300695,-12.75743 -1.786371,-16.6589 a 0.17023194,0.17023194 0 0 0 -9.08e-4,-0.002 l -0.0062,-0.0159 -0.0018,-0.005 c -1.049355,-2.99891 -2.960741,-5.51299 -5.248293,-6.87952 a 0.17023194,0.17023194 0 0 0 0,-9.1e-4 c -1.313587,-0.77881 -2.693754,-1.14062 -4.009801,-1.04434 z m 0.02129,0.33866 c 1.237889,-0.0915 2.549742,0.2491 3.814766,0.99912 2.201659,1.31565 4.076198,3.76944 5.102013,6.70399 a 0.17023194,0.17023194 0 0 0 0.0027,0.006 l 0.0089,0.0222 c 1.453795,3.81903 2.129738,10.09383 1.763322,16.51617 -0.320911,5.5191 -1.377524,10.50991 -2.856419,13.56489 -0.498276,0.99014 -1.296593,1.25533 -2.235843,1.25533 a 0.17023194,0.17023194 0 0 0 -0.0036,0 c -0.541796,-10e-4 -1.040812,-0.18238 -1.459241,-0.47429 0.622497,-2.50322 0.954366,-5.20893 0.959232,-7.95223 a 0.17023194,0.17023194 0 0 0 0,-9.1e-4 c -0.0036,-2.59442 -0.294431,-5.16053 -0.852845,-7.5524 -1.95e-4,-9e-4 1.95e-4,-0.002 0,-0.003 a 0.17023194,0.17023194 0 0 0 -0.0018,-0.0151 c -0.859721,-4.39815 -3.007216,-9.11844 -5.956637,-13.10123 a 0.17023194,0.17023194 0 0 0 -9.08e-4,0 c -0.670519,-0.8971 -1.375291,-1.74186 -2.102862,-2.53017 -0.0359,-0.24816 -0.06557,-0.49606 -0.08333,-0.74381 v -9e-4 c -0.124125,-1.85305 0.253961,-3.51772 0.962777,-4.71815 0.708934,-1.20063 1.734031,-1.93255 2.932662,-1.9752 a 0.17023194,0.17023194 0 0 0 0.0071,-9.1e-4 z"
       id="path5493"
       inkscape:connector-curvature="0" /><path
       style="color:#000000;font-style:normal;font-variant:normal;font-weight:normal;font-stretch:normal;font-size:medium;line-height:normal;font-family:sans-serif;font-variant-ligatures:normal;font-variant-position:normal;font-variant-caps:normal;font-variant-numeric:normal;font-variant-alternates:normal;font-feature-settings:normal;text-indent:0;text-align:start;text-decoration:none;text-decoration-line:none;text-decoration-style:solid;text-decoration-color:#000000;letter-spacing:normal;word-spacing:normal;text-transform:none;writing-mode:lr-tb;direction:ltr;text-orientation:mixed;dominant-baseline:auto;baseline-shift:baseline;text-anchor:start;white-space:normal;shape-padding:0;clip-rule:nonzero;display:inline;overflow:visible;visibility:visible;opacity:1;isolation:auto;mix-blend-mode:normal;color-interpolation:sRGB;color-interpolation-filters:linearRGB;solid-color:#000000;solid-opacity:1;vector-effect:none;fill:#333333;fill-opacity:1;fill-rule:nonzero;stroke:none;stroke-width:0.75;stroke-linecap:round;stroke-linejoin:round;stroke-miterlimit:4;stroke-dasharray:none;stroke-dashoffset:0;stroke-opacity:1;paint-order:markers fill stroke;color-rendering:auto;image-rendering:auto;shape-rendering:auto;text-rendering:auto;enable-background:accumulate"
       d="m 15.268204,-669.21864 c -1.317112,-0.0972 -2.697697,0.26573 -4.012462,1.04522 a 0.17023194,0.17023194 0 0 0 -9.08e-4,0 c -2.2887179,1.36723 -4.2001665,3.88393 -5.2491792,6.88484 l 0.00177,-0.006 -0.00886,0.0222 a 0.17023194,0.17023194 0 0 0 0,0.002 c -1.4856662,3.90148 -2.1548891,10.19947 -1.7863701,16.6589 0.3227302,5.55026 1.3757904,10.56526 2.8901072,13.69344 a 0.17023194,0.17023194 0 0 0 9.078e-4,0.002 c 0.5415244,1.07845 1.4861478,1.41431 2.4698892,1.43087 a 0.17023194,0.17023194 0 0 0 0.070923,0.016 c 0.6520641,-3.9e-4 1.2600211,-0.21857 1.7500221,-0.58689 a 0.17023194,0.17023194 0 0 0 0.06294,-0.17731 c -0.634552,-2.51062 -0.964909,-5.24096 -0.968097,-8.00453 0.0038,-2.57682 0.292347,-5.1261 0.847529,-7.49655 a 0.17023194,0.17023194 0 0 0 0.0018,-0.009 c 3.33e-4,-0.002 5.45e-4,-0.004 9.08e-4,-0.005 0.848652,-4.33664 2.976107,-9.01643 5.894578,-12.95761 v -9.1e-4 c 0.675248,-0.9063 1.38403,-1.76229 2.117048,-2.55588 a 0.17023194,0.17023194 0 0 0 0.04344,-0.0904 c 0.03932,-0.2668 0.07277,-0.53531 0.0922,-0.80674 a 0.17023194,0.17023194 0 0 0 0,-9.1e-4 c 0.128304,-1.91284 -0.258,-3.64179 -1.009764,-4.91495 -0.750555,-1.27112 -1.879286,-2.0921 -3.207488,-2.14188 z m -0.02393,0.33954 a 0.17023194,0.17023194 0 0 0 0.0062,0 c 1.198631,0.0427 2.223725,0.77545 2.932661,1.97609 0.708937,1.20064 1.087983,2.86472 0.963665,4.71815 -0.01756,0.24492 -0.04866,0.49054 -0.08422,0.73671 -0.727585,0.79083 -1.4319,1.63786 -2.101977,2.53726 a 0.17023194,0.17023194 0 0 0 0,9.1e-4 c -2.948639,3.98174 -5.095572,8.69964 -5.955749,13.0968 -6.5e-5,2.8e-4 6.5e-5,4.5e-4 0,9.1e-4 v 9e-4 c -1.21e-4,4.6e-4 -7.72e-4,10e-4 -9.08e-4,0.002 a 0.17023194,0.17023194 0 0 0 -9.08e-4,0.005 c -0.560246,2.39528 -0.850823,4.96695 -0.85462,7.5657 0.0032,2.74381 0.333642,5.45093 0.954799,7.95577 -0.41735,0.28989 -0.914388,0.47016 -1.4539186,0.47164 a 0.17023194,0.17023194 0 0 0 -0.00532,0 c -0.9400248,0 -1.7385456,-0.26585 -2.2367302,-1.25799 -1.4783115,-3.05519 -2.5346939,-8.0445 -2.8555327,-13.56223 -0.3664032,-6.42234 0.3104221,-12.69802 1.7642068,-16.51706 l 9.078e-4,-0.002 0.00798,-0.0195 a 0.17023194,0.17023194 0 0 0 0.00177,-0.006 c 1.0259752,-2.93501 2.9007876,-5.38938 5.1029019,-6.70487 1.265024,-0.75 2.576881,-1.08978 3.814764,-0.99824 z"
       id="path5495"
       inkscape:connector-curvature="0" /><path
       style="color:#000000;font-style:normal;font-variant:normal;font-weight:normal;font-stretch:normal;font-size:medium;line-height:normal;font-family:sans-serif;font-variant-ligatures:normal;font-variant-position:normal;font-variant-caps:normal;font-variant-numeric:normal;font-variant-alternates:normal;font-feature-settings:normal;text-indent:0;text-align:start;text-decoration:none;text-decoration-line:none;text-decoration-style:solid;text-decoration-color:#000000;letter-spacing:normal;word-spacing:normal;text-transform:none;writing-mode:lr-tb;direction:ltr;text-orientation:mixed;dominant-baseline:auto;baseline-shift:baseline;text-anchor:start;white-space:normal;shape-padding:0;clip-rule:nonzero;display:inline;overflow:visible;visibility:visible;opacity:1;isolation:auto;mix-blend-mode:normal;color-interpolation:sRGB;color-interpolation-filters:linearRGB;solid-color:#000000;solid-opacity:1;vector-effect:none;fill:#333333;fill-opacity:1;fill-rule:nonzero;stroke:none;stroke-width:0.75;stroke-linecap:round;stroke-linejoin:round;stroke-miterlimit:4;stroke-dasharray:none;stroke-dashoffset:0;stroke-opacity:1;paint-order:markers fill stroke;color-rendering:auto;image-rendering:auto;shape-rendering:auto;text-rendering:auto;enable-background:accumulate"
       d="m 31.084893,-673.25061 c -3.216244,3.1e-4 -5.827282,2.61185 -5.827201,5.82809 5e-5,0.39358 0.03963,0.78558 0.118797,1.17112 a 0.17023194,0.17023194 0 0 0 0.240253,0.11968 c 0.904717,-0.4304 1.784655,-0.72725 2.622371,-0.88654 a 0.17023194,0.17023194 0 0 0 0.0133,-0.004 c 0.469784,-0.12999 1.801459,-0.23315 3.264223,-0.23316 1.259899,1.5e-4 2.429275,0.0726 3.035499,0.18352 a 0.17023194,0.17023194 0 0 0 0.0027,9e-4 c 0.662363,0.11134 1.352982,0.31 2.062969,0.59487 a 0.17023194,0.17023194 0 0 0 0.231388,-0.13298 c 0.03994,-0.26915 0.06095,-0.54087 0.06294,-0.81296 a 0.17023194,0.17023194 0 0 0 0,-9e-4 c 8.2e-5,-3.21652 -2.610688,-5.82818 -5.827201,-5.82809 z m 0,0.34043 c 3.032527,-8e-5 5.486849,2.45514 5.486771,5.48766 -0.0014,0.19008 -0.02319,0.37946 -0.04435,0.56827 -0.651674,-0.2468 -1.295513,-0.44726 -1.914028,-0.55142 -0.655114,-0.11991 -1.824032,-0.18957 -3.096673,-0.18972 -1.474374,10e-6 -2.771257,0.0864 -3.34756,0.24468 -0.798072,0.1523 -1.631553,0.45289 -2.477866,0.83689 -0.0507,-0.30089 -0.09305,-0.60334 -0.09309,-0.9087 -7.7e-5,-3.03227 2.454499,-5.48737 5.486771,-5.48766 z"
       id="path4919"
       inkscape:connector-curvature="0" /><path
       style="color:#000000;font-style:normal;font-variant:normal;font-weight:normal;font-stretch:normal;font-size:medium;line-height:normal;font-family:sans-serif;font-variant-ligatures:normal;font-variant-position:normal;font-variant-caps:normal;font-variant-numeric:normal;font-variant-alternates:normal;font-feature-settings:normal;text-indent:0;text-align:start;text-decoration:none;text-decoration-line:none;text-decoration-style:solid;text-decoration-color:#000000;letter-spacing:normal;word-spacing:normal;text-transform:none;writing-mode:lr-tb;direction:ltr;text-orientation:mixed;dominant-baseline:auto;baseline-shift:baseline;text-anchor:start;white-space:normal;shape-padding:0;clip-rule:nonzero;display:inline;overflow:visible;visibility:visible;opacity:1;isolation:auto;mix-blend-mode:normal;color-interpolation:sRGB;color-interpolation-filters:linearRGB;solid-color:#000000;solid-opacity:1;vector-effect:none;fill:#333333;fill-opacity:1;fill-rule:nonzero;stroke:none;stroke-width:0.75;stroke-linecap:round;stroke-linejoin:round;stroke-miterlimit:4;stroke-dasharray:none;stroke-dashoffset:0;stroke-opacity:1;paint-order:markers fill stroke;color-rendering:auto;image-rendering:auto;shape-rendering:auto;text-rendering:auto;enable-background:accumulate"
       d="m 27.981131,-573.46654 a 0.17023194,0.17023194 0 0 0 -0.157805,0.18439 l 0.945936,10.95316 c -6.3e-5,1.27711 1.038516,2.31618 2.315631,2.31651 1.277116,-3.3e-4 2.316585,-1.0394 2.316521,-2.31651 l 0.945932,-10.95316 a 0.17023194,0.17023194 0 0 0 -0.240253,-0.16932 c -0.9682,0.44431 -1.979862,0.67908 -3.0222,0.67908 -1.042119,0 -2.053273,-0.23492 -3.021314,-0.67908 a 0.17023194,0.17023194 0 0 0 -0.08245,-0.0151 z m 0.203014,0.41401 c 0.931153,0.38997 1.899889,0.62057 2.900748,0.62057 1.000782,0 1.969714,-0.23068 2.900748,-0.62057 l -0.924657,10.70846 a 0.17023194,0.17023194 0 0 0 0,0.0151 c 5.5e-5,1.09316 -0.882934,1.97581 -1.976091,1.97609 -1.093156,-2.8e-4 -1.975255,-0.88293 -1.975201,-1.97609 a 0.17023194,0.17023194 0 0 0 -9.08e-4,-0.0151 z"
       id="path4930"
       inkscape:connector-curvature="0" /><path
       style="color:#000000;font-style:normal;font-variant:normal;font-weight:normal;font-stretch:normal;font-size:medium;line-height:normal;font-family:sans-serif;font-variant-ligatures:normal;font-variant-position:normal;font-variant-caps:normal;font-variant-numeric:normal;font-variant-alternates:normal;font-feature-settings:normal;text-indent:0;text-align:start;text-decoration:none;text-decoration-line:none;text-decoration-style:solid;text-decoration-color:#000000;letter-spacing:normal;word-spacing:normal;text-transform:none;writing-mode:lr-tb;direction:ltr;text-orientation:mixed;dominant-baseline:auto;baseline-shift:baseline;text-anchor:start;white-space:normal;shape-padding:0;clip-rule:nonzero;display:inline;overflow:visible;visibility:visible;opacity:1;isolation:auto;mix-blend-mode:normal;color-interpolation:sRGB;color-interpolation-filters:linearRGB;solid-color:#000000;solid-opacity:1;vector-effect:none;fill:#333333;fill-opacity:1;fill-rule:nonzero;stroke:none;stroke-width:0.74999988;stroke-linecap:round;stroke-linejoin:round;stroke-miterlimit:4;stroke-dasharray:none;stroke-dashoffset:0;stroke-opacity:1;paint-order:markers fill stroke;color-rendering:auto;image-rendering:auto;shape-rendering:auto;text-rendering:auto;enable-background:accumulate"
       d="m 11.596172,-602.1052 c -0.221643,0.0393 -0.40248,0.19333 -0.54256,0.40159 -0.14008,0.20827 -0.247615,0.47757 -0.328905,0.79523 -0.16258,0.63531 -0.216488,1.46419 -0.13032,2.35375 0.08617,0.88956 0.296241,1.67218 0.576248,2.23319 0.140003,0.2805 0.296681,0.50704 0.476956,0.66401 0.180275,0.15697 0.398045,0.24587 0.619689,0.20656 0.221643,-0.0393 0.40248,-0.19333 0.54256,-0.4016 0.14008,-0.20826 0.247615,-0.47756 0.328905,-0.79522 0.16258,-0.63531 0.216488,-1.4642 0.130321,-2.35375 -0.08617,-0.88956 -0.296242,-1.67217 -0.576249,-2.23319 -0.140003,-0.2805 -0.296681,-0.50704 -0.476956,-0.66401 -0.180275,-0.15697 -0.398045,-0.24587 -0.619689,-0.20656 z m 0.0594,0.33511 c 0.100784,-0.0179 0.206801,0.0153 0.336884,0.12854 0.130083,0.11327 0.269602,0.30471 0.396281,0.55852 0.253359,0.50762 0.457923,1.25893 0.540787,2.11439 0.08286,0.85546 0.02867,1.65265 -0.120569,2.23585 -0.07462,0.29159 -0.17359,0.52955 -0.281918,0.6906 -0.108328,0.16106 -0.218369,0.23834 -0.319153,0.25621 -0.100784,0.0179 -0.206801,-0.0153 -0.336884,-0.12854 -0.130082,-0.11327 -0.269602,-0.30471 -0.396281,-0.55852 -0.253359,-0.50762 -0.457922,-1.25893 -0.540787,-2.11439 -0.08286,-0.85546 -0.02867,-1.65265 0.120569,-2.23584 0.07462,-0.2916 0.17359,-0.52956 0.281918,-0.69062 0.108328,-0.16105 0.218369,-0.23833 0.319153,-0.2562 z"
       id="ellipse5467-0"
       inkscape:connector-curvature="0" /><path
       style="color:#000000;font-style:normal;font-variant:normal;font-weight:normal;font-stretch:normal;font-size:medium;line-height:normal;font-family:sans-serif;font-variant-ligatures:normal;font-variant-position:normal;font-variant-caps:normal;font-variant-numeric:normal;font-variant-alternates:normal;font-feature-settings:normal;text-indent:0;text-align:start;text-decoration:none;text-decoration-line:none;text-decoration-style:solid;text-decoration-color:#000000;letter-spacing:normal;word-spacing:normal;text-transform:none;writing-mode:lr-tb;direction:ltr;text-orientation:mixed;dominant-baseline:auto;baseline-shift:baseline;text-anchor:start;white-space:normal;shape-padding:0;clip-rule:nonzero;display:inline;overflow:visible;visibility:visible;opacity:1;isolation:auto;mix-blend-mode:normal;color-interpolation:sRGB;color-interpolation-filters:linearRGB;solid-color:#000000;solid-opacity:1;vector-effect:none;fill:#333333;fill-opacity:1;fill-rule:nonzero;stroke:none;stroke-width:0.74999988;stroke-linecap:round;stroke-linejoin:round;stroke-miterlimit:4;stroke-dasharray:none;stroke-dashoffset:0;stroke-opacity:1;paint-order:markers fill stroke;color-rendering:auto;image-rendering:auto;shape-rendering:auto;text-rendering:auto;enable-background:accumulate"
       d="m 50.577161,-602.1052 c -0.221642,-0.0393 -0.440298,0.0496 -0.620576,0.20656 -0.180274,0.15697 -0.336953,0.38351 -0.476956,0.66401 -0.280006,0.56101 -0.489193,1.34363 -0.575363,2.23319 -0.08617,0.88956 -0.03227,1.71843 0.130321,2.35375 0.08129,0.31766 0.188825,0.58696 0.328905,0.79522 0.14008,0.20827 0.320032,0.3623 0.541674,0.4016 0.221643,0.0393 0.440298,-0.0496 0.620577,-0.20656 0.180273,-0.15696 0.336952,-0.38351 0.476955,-0.66401 0.280006,-0.56101 0.489193,-1.34362 0.575363,-2.23319 0.08617,-0.88956 0.03227,-1.71844 -0.130321,-2.35375 -0.08129,-0.31766 -0.188825,-0.58696 -0.328905,-0.79523 -0.14008,-0.20826 -0.320031,-0.36229 -0.541674,-0.40159 z m -0.0594,0.33511 c 0.100785,0.0179 0.209936,0.0951 0.318265,0.2562 0.10833,0.16106 0.207299,0.39902 0.281922,0.69062 0.14924,0.58319 0.204317,1.38038 0.121451,2.23584 -0.08286,0.85546 -0.288312,1.60677 -0.541673,2.11439 -0.126677,0.25381 -0.266198,0.44525 -0.396279,0.55852 -0.130085,0.11326 -0.236099,0.14642 -0.336885,0.12854 -0.100785,-0.0179 -0.210826,-0.0951 -0.31915,-0.25621 -0.10833,-0.16105 -0.206414,-0.39901 -0.281037,-0.6906 -0.149239,-0.5832 -0.204316,-1.38038 -0.121451,-2.23585 0.08287,-0.85547 0.288312,-1.60677 0.541674,-2.11439 0.126676,-0.25381 0.265308,-0.44525 0.395393,-0.55852 0.13008,-0.11326 0.236984,-0.14642 0.33777,-0.12854 z"
       id="ellipse5489-5"
       inkscape:connector-curvature="0" /></g></svg>